<?xml version="1.0" encoding="utf-8"?>
<!-- Generator: Adobe Illustrator 25.0.0, SVG Export Plug-In . SVG Version: 6.00 Build 0)  -->
<svg version="1.1" id="Layer_1" xmlns="http://www.w3.org/2000/svg" xmlns:xlink="http://www.w3.org/1999/xlink" x="0px" y="0px"
	 viewBox="0 0 1080 193.76" style="enable-background:new 0 0 1080 193.76;" xml:space="preserve">
<style type="text/css">
	.st0{fill:#FECF28;}
</style>
<g>
	<g>
		<path d="M641.01,57.3h-38.22c-0.74,0-1.34,0.6-1.34,1.34v93.53c0,0.75,0.6,1.34,1.34,1.34h20.58c0.74,0,1.34-0.6,1.34-1.34v-26.72
			H639c23.79,0,39.15-13.43,39.15-34.21v-0.27C678.15,70.51,663.57,57.3,641.01,57.3 M654.63,91.64c0,7.79-5.87,12.83-14.96,12.83
			H624.7V78.55h14.56c9.91,0,15.37,4.54,15.37,12.83V91.64z"/>
		<path d="M896.03,77.6V58.64c0-0.74-0.6-1.34-1.33-1.34h-77.51c-0.74,0-1.34,0.6-1.34,1.34V77.6c0,0.75,0.6,1.34,1.34,1.34h27.14
			v73.22c0,0.75,0.59,1.34,1.34,1.34h20.57c0.75,0,1.34-0.59,1.34-1.34V78.95h27.14C895.43,78.95,896.03,78.35,896.03,77.6"/>
		<path d="M950.7,57.45c-0.21-0.5-0.69-0.81-1.23-0.81H930.5c-0.54,0-1.02,0.32-1.24,0.81l-40.08,94.2
			c-0.18,0.41-0.14,0.9,0.11,1.26c0.26,0.38,0.67,0.6,1.12,0.6h20.98c0.54,0,1.03-0.32,1.24-0.82l8.21-20.15h37.77l8.2,20.15
			c0.22,0.51,0.7,0.82,1.24,0.82h21.51c0.45,0,0.86-0.22,1.11-0.6c0.25-0.37,0.29-0.85,0.12-1.26L950.7,57.45z M929.28,111.68
			l10.44-25.46l10.44,25.46H929.28z"/>
		<path d="M703.07,52.13h24.01c1.22,0,2.21-1,2.21-2.21v-7.48c0-1.22-0.99-2.21-2.21-2.21h-24.01c-1.22,0-2.21,0.99-2.21,2.21v7.48
			C700.87,51.14,701.85,52.13,703.07,52.13"/>
		<path d="M1078.86,150.52l-7.91-7.6l-19.73-20.1c14.93-1.22,26.71-15.39,26.71-32.72c0-18.1-12.9-32.8-28.79-32.8
			c-0.32,0-0.63,0.03-0.94,0.03c-0.47-0.01-0.96-0.03-1.44-0.03H1004c-0.74,0-1.34,0.61-1.34,1.34v93.53c0,0.75,0.6,1.34,1.34,1.34
			h20.58c0.74,0,1.33-0.6,1.33-1.34v-28.59h0.07l27.92,29.33c0.24,0.37,0.66,0.6,1.1,0.6h21.91h0.71h0.18h0.53h0.37
			c0.88-0.01,1.14-0.4,1.3-1.03C1080.02,152.18,1079.91,151.53,1078.86,150.52 M1013.05,97.13c-3.98,0.74-7.81-1.89-8.54-5.87
			c-0.04-0.2-0.07-0.4-0.1-0.61v-1.43c0.03-0.25,0.08-0.5,0.13-0.75c0.27-1.3,0.83-2.45,1.73-3.43c1.66-1.8,3.71-2.6,6.13-2.39
			c3.28,0.29,5.95,2.79,6.52,6.02C1019.61,92.64,1017,96.4,1013.05,97.13 M1028.79,100.16l-5.15-5.04c0.81-1.58,1.21-3.33,1.21-5.22
			c-0.01-2.02-0.49-3.85-1.42-5.5l5.13-5.01C1032.79,85.51,1032.89,93.96,1028.79,100.16 M1033.46,104.7
			c3.73-4.21,5.67-9.14,5.66-14.79c-0.02-5.72-2.06-10.72-5.99-14.99l5.33-5.21c10.52,10.62,11.22,28.64,0.34,40.22L1033.46,104.7z
			 M1049.95,120.82l-5.71-5.57c6.14-7.6,8.39-14.82,9.18-19.45c0.18-1.21,0.32-2.45,0.37-3.67c0.07-1.49,0.08-3-0.03-4.5
			c-0.63-8.79-3.84-16.44-9.72-22.89c-0.07-0.07-0.12-0.14-0.21-0.23c0.07-0.07,0.13-0.16,0.21-0.22c0.08-0.1,0.17-0.19,0.27-0.28
			l5.1-4.98c0.01,0.01,0.02,0.02,0.02,0.03c4.46,4.79,7.72,10.33,9.8,16.61c1,3,1.66,6.09,2.02,9.25c0.14,1.24,0.24,2.48,0.28,3.73
			c0,0.1,0.02,0.18,0.04,0.28v2.6c-0.03,0.1-0.03,0.21-0.04,0.31c-0.06,0.81-0.09,1.63-0.17,2.44c-0.16,2.03-0.46,4.03-0.91,6
			c-1.64,7.41-4.88,13.97-9.75,19.69C1050.46,120.26,1050.21,120.54,1049.95,120.82"/>
		<path d="M801.42,57.29h-20.3c-0.75,0-1.34,0.61-1.34,1.34v53.64l-41.43-54.45c-0.25-0.33-0.64-0.53-1.06-0.53H718.3
			c-0.74,0-1.33,0.61-1.33,1.34v9.82v31.85h10.94l-10.94,33.38v18.49c0,0.75,0.59,1.34,1.33,1.34h20.32c0.73,0,1.34-0.59,1.34-1.34
			v-55.5l42.89,56.31c0.26,0.34,0.65,0.52,1.06,0.52h17.51c0.74,0,1.34-0.59,1.34-1.34V58.63C802.75,57.9,802.15,57.29,801.42,57.29
			"/>
		<path d="M712.11,57.29h-20.58c-0.74,0-1.33,0.61-1.33,1.34v93.54c0,0.75,0.6,1.34,1.33,1.34h20.58c0.75,0,1.34-0.59,1.34-1.34
			v-7.77v-31.76h-13.79l13.79-35.23V58.63C713.46,57.9,712.86,57.29,712.11,57.29"/>
		<path d="M556.54,146.26c-7.79-3.42-15.15-5.21-21.94-5.89c0.97-3.19,3.28-10.4,7.52-21.64c5.94-15.69,10.5-22.22,11.77-25.25
			c1.09-2.61,0.14-6.49-2.74-8.19c-0.11-0.07-0.21-0.12-0.32-0.18c-0.14-0.07-0.29-0.14-0.44-0.21c-0.06-0.02-0.12-0.05-0.18-0.07
			c-0.2-0.08-0.4-0.15-0.61-0.21c-0.27-0.07-0.52-0.12-0.75-0.17c-0.05-0.01-0.09-0.01-0.14-0.02c-0.19-0.02-0.38-0.06-0.56-0.07
			c-0.02-0.01-0.05-0.01-0.07-0.01c-0.2-0.02-0.38-0.02-0.56-0.02h-0.03c-2.45,0.07-3.33,1.59-3.33,1.59
			c-0.84,0.99-1.56,2.46-2.63,4.7c-0.78,1.63-1.97,4.17-3.46,7.62c-6.73,12.77-13.13,20.15-17.66,24.28
			c-7.7,7-14.77,10.64-18.94,9.74c-1.08-0.23-2.67-0.91-4.02-4.06c-1.35-3.16-0.1-8.38,2.27-13.84c0.27-0.73,0.71-1.68,1.36-2.92
			c0.02-0.03,0.03-0.05,0.03-0.07c0.04-0.08,0.09-0.17,0.12-0.25c0.03-0.06,0.07-0.12,0.11-0.19c1.14-2.15,2.19-3.99,3.13-5.55v0.01
			c0.01-0.03,0.03-0.06,0.05-0.09c0.01-0.01,0.01-0.02,0.01-0.02c0.26-0.42,0.51-0.83,0.76-1.24c0.02-0.03,0.03-0.04,0.05-0.07
			c1.57-2.46,3.13-4.51,4.5-6.13c2.02-2.41,3.59-3.83,3.96-4.17c0.01-0.01,0.01-0.01,0.01-0.01c0.02-0.02,0.04-0.03,0.06-0.05
			c0.01-0.01,0.03-0.02,0.03-0.02l-0.02,0.02c1.35-1.35,2.75-2.67,4.25-3.98c0.63-0.56,1.23-0.98,1.79-1.33l0.01-0.01
			c0.02-0.01,0.06-0.03,0.1-0.06c0.32-0.2,1.28-0.81,2.23-0.94c0.41-0.06,0.83-0.02,1.17,0.18c0.2,0.13,0.34,0.29,0.44,0.47
			c0.05,0.08,0.08,0.19,0.12,0.3c0,0.5,0.57,0.91-3.27,4.18c-2.22,1.88-4.13,3.66-5.37,4.81c-0.5,0.44-0.97,0.9-1.43,1.38
			c-0.01,0.01-0.03,0.02-0.03,0.02l0,0c-3.52,3.68-5.82,8.25-6.22,9.08l0.83-0.41c6.2-2.54,14.02-5.05,19.42-9.89
			c0.23-0.2,0.44-0.4,0.65-0.6c0.07-0.06,0.12-0.12,0.19-0.18c0.15-0.14,0.3-0.28,0.44-0.42c0.06-0.07,0.12-0.12,0.18-0.18
			c0.17-0.17,0.32-0.34,0.48-0.5c0.03-0.02,0.05-0.05,0.07-0.07c0.17-0.19,0.34-0.38,0.51-0.56c0.04-0.06,0.08-0.11,0.13-0.16
			c0.12-0.14,0.23-0.28,0.35-0.41c0.04-0.06,0.09-0.11,0.12-0.17c0.13-0.16,0.25-0.3,0.36-0.45c0.02-0.03,0.05-0.07,0.07-0.09
			c0.12-0.18,0.26-0.36,0.38-0.53c0.02-0.04,0.06-0.08,0.08-0.12c0.1-0.14,0.18-0.28,0.27-0.41c0.03-0.04,0.07-0.1,0.09-0.15
			c0.1-0.13,0.17-0.27,0.26-0.41l0.07-0.09c0.09-0.17,0.19-0.34,0.28-0.5c0.01-0.02,0.03-0.05,0.03-0.07
			c0.07-0.14,0.15-0.28,0.22-0.41c0.02-0.04,0.04-0.08,0.06-0.12c0.06-0.12,0.12-0.24,0.17-0.37c0.02-0.04,0.03-0.07,0.05-0.1
			c0.07-0.15,0.12-0.3,0.19-0.45V89.9c0.06-0.14,0.11-0.27,0.17-0.41c0.01-0.03,0.03-0.06,0.03-0.1c0.04-0.1,0.07-0.22,0.11-0.32
			c0.01-0.03,0.02-0.07,0.03-0.1c0.07-0.27,0.15-0.51,0.2-0.75c0.01-0.04,0.02-0.08,0.03-0.12l0.05-0.24
			c0.01-0.03,0.02-0.08,0.02-0.11c0.02-0.09,0.03-0.17,0.03-0.25c0.01-0.02,0.02-0.06,0.03-0.08c0.01-0.09,0.02-0.18,0.03-0.27
			c0.01-0.05,0.01-0.1,0.02-0.13c0-0.05,0-0.1,0.01-0.15c0.01-0.04,0.01-0.09,0.01-0.14c0-0.04,0.01-0.07,0.01-0.12
			c0.01-0.17,0.01-0.34,0-0.49V86.1c0-0.06,0-0.11,0-0.16c-0.03-0.56-0.12-0.85-0.12-0.85h-0.01c-0.33-1.85-1.2-3.48-2.4-4.77
			c-4.06-4.32-12.61-5.2-20.48,1.68c-5.8,5.08-10.24,10.19-15.38,16.11c-3.81,4.4-8.12,9.37-13.89,15.38
			c-8.18,8.54-14.33,13.58-18.68,16.47c-0.55,0.34-4.99,3.05-6.61,1.56c-1.09-1-0.82-2.75-0.47-3.95c1.23-3.54,3.38-7.46,5.29-10.95
			c0.57-1.05,1.13-2.05,1.62-2.99c0.67-1.27,1.46-2.68,2.31-4.17c4.88-8.65,10.39-18.46,6.83-25.52c-1.25-2.48-3.57-4.08-6.36-4.39
			c-7.48-0.8-17.26,7.89-21.97,12.95c0,0,0,0-0.01,0.02c-3.08,3.09-7.45,9.6-7.45,9.6c-0.12,0.16-0.25,0.33-0.36,0.5h-0.01
			c-0.41,0.55-0.65,0.75-0.75,0.8c-0.13,0.07-0.3,0.14-0.46,0.2c-0.53,0.12-0.8-0.16-0.91-0.38l0,0c-0.01-0.01-0.01-0.02-0.01-0.02
			c-0.03-0.03-0.04-0.07-0.05-0.1c-0.02-0.1-0.03-0.2-0.03-0.3c0.02-0.07,0.02-0.12,0.03-0.19v-0.01c0.02-0.12,0.06-0.27,0.1-0.43
			c0.03-0.07,0.05-0.13,0.07-0.2c0.35-0.84,1.86-4.23,5.13-8.19c3.77-4.56,5.59-5.66,6.73-7.78c1.14-2.11,0.28-6.68-2.84-8.53V77.5
			c-0.9-0.56-1.96-0.9-3.09-0.9h-0.02c-3.91,0.01-7.13,3.56-11.48,12.64c-0.05,0.11-0.1,0.22-0.16,0.32
			c-3.74,4.43-8.97,11-16.17,20.87c-9.31,12.75-16.05,19.07-20.53,22.23c-0.05,0.03-5.87,3.65-6.82-0.9
			c-0.53-2.58-0.61-5.66-0.3-9.31c0,0,1.63-16.09,9.18-28.25c1.77-2.89,2.5-3.59,3.28-3.84c0.18-0.04,0.46-0.04,0.75,0.2
			c0.35,0.35,0.25,0.88,0.24,0.93c-0.1,0.5-0.35,1.18-0.65,1.88c-0.08,0.19-0.74,1.6-2.28,4.66c-0.18,0.36-0.41,0.8-0.67,1.31
			c0,0,0,0.02-0.02,0.03c0,0.02-0.01,0.02-0.02,0.05c-1.78,3.61-5.03,10.83-6.34,17.97c1.67-1.54,2.96-2.94,3.73-3.82
			c4.42-5.15,7.17-10.47,8.74-14.25l0.06-0.12c0.01-0.02,0.01-0.04,0.02-0.07c0.14-0.34,0.28-0.67,0.41-1
			c0.37-0.92,0.69-1.82,0.96-2.7c0.27-0.86,0.39-1.35,0.39-1.35v0.01c1.81-6.92,0.54-12.13-3.65-14.12
			c-1.82-0.85-5.54-1.64-10.08,2.78c-2.41,2.34-4.9,6-7.45,10.85c-4.93,9.44-7.39,18.76-8.22,26.73
			C362.5,132,355.25,134.49,352.63,135c-1.9,0.37-2.92,0.11-3.19-0.05c-0.27-0.42-1.04-2.27,0.76-8.18
			c1.56-5.13,4.4-11.17,7.39-17.42c3.09-6.44,5.84-13.15,7.2-16.59c0.88-2.21,1.68-4.32,2.27-5.95c0.48-1.33,0.88-2.43,1.02-3.47
			l0,0c0.02-0.07,0.02-0.13,0.02-0.2c0-0.03,0.02-0.06,0.02-0.09c0.01-0.15,0.02-0.29,0.03-0.43c0.01-0.13,0.01-0.27,0-0.39v-0.02
			c0-0.12-0.02-0.23-0.03-0.36v-0.01c-0.02-0.12-0.02-0.23-0.06-0.33c0-0.01,0-0.02,0-0.02c-0.02-0.1-0.04-0.22-0.07-0.32
			l-0.01-0.02c-0.02-0.1-0.06-0.2-0.1-0.3c0,0-0.01-0.02-0.01-0.03c-0.03-0.09-0.07-0.17-0.12-0.27c0,0-0.01-0.02-0.02-0.03
			c-0.04-0.09-0.09-0.17-0.14-0.26c0,0-0.01-0.03-0.02-0.03c-0.05-0.07-0.11-0.17-0.15-0.24c-0.02-0.02-0.03-0.03-0.03-0.03
			c-0.05-0.07-0.11-0.15-0.17-0.22c-0.01-0.03-0.02-0.04-0.03-0.06c-0.06-0.06-0.12-0.12-0.18-0.19c-0.02-0.02-0.04-0.04-0.06-0.06
			c-0.06-0.06-0.12-0.12-0.18-0.18c-0.12-0.12-0.27-0.24-0.4-0.34l-0.03-0.03c-0.5-0.38-0.95-0.61-1.28-0.75
			c-0.05-0.02-0.09-0.04-0.13-0.05c-0.06-0.03-0.12-0.05-0.17-0.07c-0.12-0.03-0.22-0.07-0.32-0.1c-0.02-0.01-0.03-0.02-0.03-0.02
			c-0.14-0.03-0.26-0.07-0.37-0.1c-0.18-0.03-0.36-0.07-0.52-0.09c-0.13-0.02-0.26-0.03-0.38-0.04c-1.39-0.16-2.58,0.08-3.57,0.56
			l-0.01,0.01c-0.13,0.06-0.27,0.13-0.39,0.2c-0.01,0-0.02,0.01-0.02,0.02c-0.12,0.07-0.24,0.14-0.36,0.22
			c-0.01,0.02-0.03,0.03-0.03,0.03c-0.11,0.07-0.22,0.15-0.32,0.23c-0.02,0.02-0.03,0.03-0.05,0.05c-0.1,0.07-0.19,0.15-0.27,0.23
			c-0.03,0.03-0.05,0.04-0.07,0.07c-0.07,0.07-0.15,0.15-0.22,0.22c-0.03,0.03-0.06,0.07-0.09,0.1c-0.06,0.07-0.12,0.15-0.18,0.22
			c-0.03,0.04-0.06,0.09-0.1,0.14c-0.06,0.06-0.1,0.12-0.14,0.18c-0.04,0.07-0.07,0.12-0.12,0.19c-0.03,0.05-0.07,0.1-0.1,0.15
			c-0.07,0.12-0.13,0.22-0.19,0.34c-0.93,1.87-4.81,7.24-10.8,15.66c-6,8.43-21.67,28.79-29.68,34.28
			c-0.02,0.02-0.03,0.02-0.04,0.03c-0.01,0.01-0.02,0.01-0.02,0.01c-3.97,2.72-6.29,2.99-7.63,2.58c-1.34-0.59-1.68-1.54-1.75-2.21
			c-0.01-0.1-0.01-0.2-0.01-0.31c0,0,0-0.04,0-0.07c0.02-0.27,0.07-0.55,0.17-0.85v-0.02c0.51-1.53,2.3-3.66,7.53-9.07
			c0.27-0.28,0.54-0.56,0.8-0.85c0.09-0.08,0.17-0.18,0.27-0.27c0.17-0.18,0.34-0.36,0.5-0.53c0.11-0.12,0.2-0.22,0.3-0.32
			c0.15-0.16,0.3-0.32,0.45-0.47c0.08-0.11,0.17-0.21,0.27-0.31c0.14-0.16,0.28-0.32,0.42-0.47c0.09-0.09,0.17-0.19,0.26-0.29
			c0.14-0.16,0.28-0.32,0.41-0.46c0.08-0.09,0.17-0.18,0.25-0.28c0.13-0.15,0.27-0.3,0.4-0.45c0.08-0.09,0.16-0.18,0.23-0.27
			c0.12-0.16,0.25-0.3,0.38-0.44c0.07-0.09,0.15-0.17,0.22-0.27c0.12-0.14,0.25-0.28,0.37-0.42c0.07-0.08,0.13-0.16,0.2-0.24
			c0.12-0.14,0.24-0.28,0.36-0.42c0.06-0.07,0.12-0.15,0.17-0.22c0.12-0.14,0.23-0.28,0.34-0.42c0.06-0.07,0.12-0.13,0.17-0.22
			c0.11-0.14,0.22-0.27,0.32-0.4c0.06-0.07,0.12-0.13,0.16-0.2c0.12-0.13,0.21-0.27,0.32-0.4c0.04-0.07,0.09-0.12,0.14-0.17
			c0.1-0.14,0.2-0.27,0.3-0.39c0.05-0.05,0.08-0.12,0.12-0.17c0.1-0.13,0.19-0.26,0.29-0.37c0.03-0.06,0.07-0.11,0.12-0.16
			c0.09-0.12,0.18-0.24,0.26-0.37c0.04-0.04,0.07-0.1,0.11-0.13c0.09-0.12,0.17-0.25,0.25-0.35c0.04-0.05,0.07-0.09,0.1-0.13
			c0.08-0.12,0.17-0.22,0.24-0.33c0.03-0.04,0.05-0.07,0.08-0.12c0.07-0.12,0.16-0.22,0.23-0.33c0.02-0.03,0.04-0.06,0.07-0.09
			c0.07-0.11,0.14-0.22,0.21-0.31c0.02-0.03,0.05-0.07,0.07-0.09c0.06-0.11,0.12-0.21,0.18-0.3c0.03-0.03,0.04-0.05,0.06-0.07
			c0.05-0.07,0.09-0.14,0.15-0.22c0.53-0.85,1.63-2.74,2.41-5.26c0.82-2.85,0.96-5.68-0.19-8.02c-0.85-1.69-2.22-2.9-3.93-3.56
			h-0.01c-2.58-1.16-3.93-0.5-7.12-0.57c-2.76-0.07-6.79-1.34-7.84-1.68c-11.94-4-11.88-7.47-11.47-8.66
			c0.05-0.09,0.08-0.19,0.13-0.27c0.1-0.14,0.76-1,1.94-0.18c1.29,0.9,0.9,2.16,4.41,3.96c3.52,1.82,4.79,1.34,4.79,1.34
			s0.19-0.15,0.46-2.83c0.03-0.32,0.07-0.63,0.1-0.93v-0.01v-0.02c0.27-3.5-0.31-6.17-1.75-8.23c-1.06-1.5-3.55-3.96-8.31-3.46
			c-9.28,0.98-10.68,7.11-10.9,8.96c-0.45,4.01,1.7,8.4,5.52,12.18c1.73,1.68,10.86,9.83,24.01,10.31
			c-0.07,0.17-0.15,0.36-0.23,0.54c-0.7,1.53-3.08,6.06-8.42,10.67l0,0c-3.13,2.68-6.98,6-9.47,10.09
			c-3.09,5.08-3.46,10.43-1.1,15.56c0.73,1.46,2.45,4.05,5.9,5.76c1.68,0.76,3.49,1.12,5.42,1.06c6-0.17,12.7-4.48,20.68-13.38v0.01
			c0,0,0.07-0.1,0.22-0.27c0.41-0.45,0.82-0.92,1.24-1.39c0.26-0.34,0.51-0.69,0.75-1.04c1.96-2.51,4.82-6.62,6.99-11.37
			c2.19-4.69,2.24-5.88,3.7-6.34c0.09-0.02,0.17-0.02,0.26-0.02h0.01c0.99,0.21,1.06,1.11,1.06,1.47c-0.05,0.55-0.24,1.34-0.71,2.46
			c-0.08,0.2-0.16,0.37-0.23,0.55c-4.62,10.93-6.68,19.79-2.08,25.69c2.22,2.87,6.05,4.35,10.49,4.08
			c5.13-0.31,10.98-2.86,17.1-7.42l0.3-0.22c0.21-0.17,0.41-0.32,0.64-0.48v-0.02l0.31-0.23c0,0-0.64-5.24-0.29-6.72
			c0.33-1.49,1.24-1.89,1.95-1.68c0,0,0.8,0.2,0.95,1.87c0.12,1.34,0.36,4.2,1.33,7.17c0.01,0.01,0.01,0.02,0.01,0.02
			c0.01,0.02,0.01,0.02,0.01,0.02c0.02,0.08,0.05,0.17,0.07,0.24c0.04,0.11,0.07,0.22,0.12,0.34c0.03,0.09,0.07,0.18,0.1,0.27
			c0.07,0.17,0.13,0.33,0.19,0.48c0.02,0.07,0.05,0.12,0.07,0.18c0.19,0.46,0.35,0.8,0.46,1.03c0.05,0.09,0.11,0.2,0.16,0.3
			c1.76,3.19,4.95,5.14,8.76,5.38c0.28,0.02,0.57,0.03,0.85,0.03c6.51-0.02,14.26-4.82,23.17-14.27c1.1-1.23,2.05-2.4,2.88-3.49
			v0.01c0,0,0.02-0.03,0.05-0.07c0.09-0.13,0.19-0.26,0.28-0.38c0.02-0.03,0.27-0.41,0.67-1.02c1.09-1.68,2.96-4.64,4.92-8.32
			c1.46-2.75,2.36-4.39,3.04-5.27c0.29-0.36,0.95-1,1.68-0.69c0.07,0.03,0.32,0.17,0.46,0.52c0.03,0.07,0.05,0.16,0.07,0.27l0,0
			c0,0,0,0.02,0.01,0.04c0,0,0,0.03,0,0.04c0.25,1.62-1.48,3.85-6.06,12.85c-2.95,5.76-3.28,8.85-2.99,10.47
			c0.41,1.35,1.33,2.39,2.72,3.05c4.2,2.02,7.12-1.75,9.25-4.51c1.72-2.23,4.14-5.57,7.19-9.82c4.01-5.57,9.4-13.05,16.09-21.96
			c0.52-0.7,2.77-3.6,5.18-6.02c0.79-0.77,1.6-1.48,2.41-2.17c0.06-0.06,0.13-0.12,0.19-0.16l0,0l0.01-0.01
			c0.12-0.1,0.23-0.19,0.34-0.28c0.85-0.7,3.12-2.45,4.18-2.02c1.23,0.51,0.65,2.84-0.1,4.47c-1.21,2.45-2.63,4.98-3.94,7.31
			c-0.88,1.55-1.7,3.02-2.43,4.4c-0.47,0.9-1,1.85-1.55,2.85c-4.83,8.79-11.43,20.82-4.57,28.64c1.82,2.09,4.34,3.23,7.27,3.29
			c7.26,0.17,17.81-6.68,31.37-20.34c-0.25,3.16,0.07,6.2,1.25,8.95c2.97,6.88,7.75,9.24,11.24,9.99c1.16,0.25,2.32,0.36,3.5,0.36
			c2.36-0.01,4.74-0.49,7.09-1.3l-0.01,0.01c0,0,8.19-2.36,11.2-7.6c1.55-2.67,1.67-6.15,3.2-6.97c0.03-0.02,1.07-0.52,1.69,0.36
			c0.2,0.36,0.36,0.94,0.28,1.82c-0.08,0.61-0.22,1.24-0.34,1.72c-0.05,0.17-0.09,0.32-0.12,0.46c-0.07,0.23-0.11,0.38-0.11,0.38
			c-0.34,1.07-0.68,2.16-1.01,3.26l-1.01,3.27c-0.22,0.76-0.46,1.5-0.67,2.22c-7.73,0.61-14.38,2.52-19.65,4.68
			c-13.67,5.57-25.13,15.7-29.19,25.79c-4.03,10-0.12,15.78,2.56,18.35c3.52,3.33,8.42,4.71,13.2,4.7c2.27-0.01,4.5-0.33,6.54-0.9
			c0.06-0.01,0.12-0.03,0.17-0.04c0.25-0.07,0.5-0.15,0.75-0.22c0.17-0.06,0.33-0.12,0.49-0.17c0.12-0.04,0.24-0.08,0.35-0.13
			c0.22-0.07,0.43-0.16,0.64-0.24c8-3.21,21.2-12.59,25.73-23.61c2.42-5.87,4.85-12.66,6.72-18.08c6.44,0.38,13.53,1.92,21.16,5.25
			c2.58,1.14,5.58-0.04,6.72-2.62C560.3,150.41,559.13,147.41,556.54,146.26 M498.84,180.39c-2.63,1.53-8.9,4.55-14.03,2.04
			c-0.41-0.22-0.76-0.48-1.06-0.77c-1.45-1.38-1.5-3.79-0.14-7.15c2.45-6.07,10.87-14.98,23.59-20.16
			c3.47-1.42,7.66-2.72,12.45-3.45C514.45,166.73,510.66,173.1,498.84,180.39"/>
		<path d="M571.62,156.39c-2.49-1.33-5.56-0.38-6.89,2.11c-1.32,2.49-0.37,5.56,2.11,6.89c3.72,1.98,7.82,4.71,8.59,5.72
			c0.99,1.38,2.53,2.12,4.11,2.14c1.04,0.02,2.09-0.28,3.01-0.94c2.29-1.62,2.83-4.8,1.2-7.11
			C581.31,161.76,574.45,157.9,571.62,156.39"/>
		<path d="M22.75,80.79C14.99,79.56,8.58,74,8.47,73.91c-2.1-1.87-5.31-1.67-7.18,0.42c-1.87,2.11-1.68,5.33,0.41,7.2
			c0.35,0.32,8.65,7.62,19.44,9.32c0.28,0.05,0.55,0.07,0.82,0.07c2.46-0.01,4.62-1.79,5.01-4.3
			C27.42,83.85,25.52,81.23,22.75,80.79"/>
		<path d="M71.67,91.44c0.21-0.06,0.41-0.12,0.62-0.15c0.08-0.02,0.17-0.04,0.24-0.06c17.23-4.01,31.72-11.8,42.73-22.85
			c23.08-26.07,22.38-44.81,21.61-49.96c-2.65-15.5-17.81-27.07-37.88-9.87C76.83,27.54,65.07,74.16,63.49,80.8
			c-0.16,0.64-0.3,1.27-0.44,1.9c-12.77,2.02-22.42,1.15-22.67,1.13c-2.79-0.27-5.29,1.77-5.57,4.57c-0.28,2.81,1.77,5.3,4.57,5.58
			c0.46,0.04,9.31,0.87,21.61-0.69C60.99,93.29,65.78,92.92,71.67,91.44 M74.99,76.87c1.39-5.18,2.84-10.09,4.3-14.75
			c2.65-8.05,9.88-27.72,21.18-40.41c4.41-4.61,9.45-8.24,15.17-10.16c4.76-1.04,14.41-0.31,10.24,18.95c0,0,0,0.02-0.01,0.03
			c-0.18,0.63-0.36,1.24-0.56,1.86c-1.34,4.09-5.26,14.31-13.93,25.18c-9.21,10.82-21.68,18.45-37.29,22.74
			C74.39,79.19,74.69,78.03,74.99,76.87"/>
		<path d="M302,102.81c0.03-0.07,0.25-0.52,0.61-1.28l0.2-0.5l-0.21-0.12c-2.09-0.98-7.1-3.77-8.7-5.12
			c-0.53,1.55-2.88,5.71-2.88,5.71c-9.75,16.46-25.53,35.28-33.2,31.88c-0.34-0.16-0.78-0.36-0.98-1.68
			c-0.38-2.52,0.52-6.56,2.5-11.54c7.71-9.61,12.93-16.98,18.4-28.24c0.8-1.64,2.47-5.08-0.07-7.9c-1.43-1.58-3.67-2.13-5.73-1.38
			c-1.31,0.47-2.72,1.32-6.72,6.73c-2.48,3.37-5.19,7.49-7.63,11.61c-2.41,4.06-5.05,8.97-7.14,13.97c0,0-2.65,4.19-7.35,8.92
			c-1.26,1.39-2.65,2.65-4.11,3.77l-0.01,0.02v-0.01c-5.97,4.54-13.05,6.49-16.3,4.78c-2.6-1.38-2.92-6.46-0.85-13.59
			c0.65-2.25,1.42-4.32,2.26-6.27h-0.01c0.02-0.03,0.03-0.06,0.05-0.09c0.07-0.16,0.12-0.32,0.19-0.46l-0.01,0.01
			c0,0,0.02-0.06,0.07-0.17c0.03-0.07,0.09-0.15,0.15-0.24c2.41-4.8,4.78-8.24,6.59-10.5c0.58-0.71,1.77-2.11,3.18-3.46
			c2.47-2.36,4.96-4.18,7.22-5.56h-0.02c0,0,0.04-0.03,0.1-0.06c1.19-0.72,2.3-1.32,3.32-1.82c1.3-0.66,2.73-1.31,3.81-1.61
			c0,0,0.96-0.31,1.23,0.21c0.2,0.92-1.09,2.33-4.51,4.34c0,0-0.01,0.01-0.02,0.02c-0.55,0.37-1.14,0.75-1.77,1.14l0,0
			c0,0-0.5,0.29-1.31,0.87c-0.87,0.62-1.6,1.19-2.15,1.64c-2.88,2.36-6.98,6.39-10.14,12.17c8.31-3.47,21.79-9.79,25.83-15.89
			c2.34-3.53,2.88-6.73,1.59-9.49c-0.27-0.58-0.61-1.09-1-1.55l-0.01-0.02c-0.72-0.95-1.46-1.68-2.16-2.26l-0.03-0.02
			c-0.03-0.03-0.06-0.05-0.1-0.08c-0.47-0.37-0.93-0.66-1.38-0.9c-1.9-0.9-3.96-0.75-5.46-0.43c-3.48,0.99-19.39,6.35-29.61,24.11
			c-10.65,1.17-17.96-1.82-22.91-5.92c-0.3-0.22-0.61-0.49-0.94-0.81c-4.46-4.32-7.31-10.43-7.31-10.43
			c-4.35-10.17-3.68-22.77,1.39-28.94h-0.02c0,0,2.29-3.09,3.77-2.93c0.02,0,0.07,0,0.1,0.01l0,0l0,0c0.64,0.07,1,0.65,0.97,1.51
			l0.01-0.01c0,0.03-0.01,0.07-0.01,0.11c0,0.1-0.02,0.22-0.03,0.32c-0.32,2.42-1.46,5.13-3.06,10.62c-0.02,0.07-0.03,0.14-0.07,0.2
			c-1.01,3.53-1.2,6.15-1.2,7.65c0.02,0.61,0.06,1.21,0.12,1.76v0.01c0.03,0.4,0.08,0.78,0.15,1.14v0.01
			c0.02,0.17,0.04,0.34,0.08,0.51c0,0,0,0.03,0.01,0.05c0.02,0.17,0.05,0.32,0.08,0.46c0,0,0,0.02,0,0.03
			c0.13,0.64,0.27,1.21,0.41,1.68c0,0,0,0.01,0,0.02c0.04,0.12,0.07,0.21,0.09,0.32l0.02,0.02c0.09,0.32,0.17,0.57,0.24,0.75v0.01
			c0.02,0.06,0.04,0.11,0.06,0.15c0,0,0.01,0.02,0.01,0.03c0.01,0.03,0.02,0.06,0.03,0.09c0,0,0,0.02,0.02,0.02
			c0.01,0.03,0.02,0.04,0.02,0.04s0,0.02,0.01,0.03l0.01,0.02v-0.01c1.62,4.77,4.21,8.29,5.24,9.6c1.77-4.25,5.68-15.38,6.75-32.07
			c0.17-7.54-1.39-12.09-4.84-14.41c-1.26-0.85-2.96-1.52-5.12-1.37c0,0-5.77,0.01-11.51,6.93c-0.15,0.18-0.28,0.36-0.42,0.52
			c-0.02,0.03-0.03,0.06-0.06,0.07c-0.32,0.4-0.61,0.81-0.9,1.23c-0.08,0.11-0.16,0.22-0.23,0.32l0,0
			c-6.57,9.83-7.15,25.66-0.78,39.04c0.35,0.75,0.73,1.48,1.13,2.19c0,0-0.7,2.34-2.15,6.01c-0.11,0.27-0.21,0.54-0.32,0.82
			c-0.01,0.02-0.02,0.04-0.03,0.06c-0.11,0.27-0.22,0.53-0.33,0.8c-0.01,0.03-0.02,0.04-0.02,0.07c-0.12,0.27-0.23,0.56-0.36,0.85
			c-0.01,0.01-0.02,0.03-0.02,0.03c-0.12,0.29-0.25,0.59-0.38,0.89c-0.51,1.21-1.11,2.5-1.76,3.84c-0.31,0.66-0.64,1.34-1,2.03
			c-0.01,0.01-0.01,0.03-0.03,0.04c-0.33,0.68-0.69,1.37-1.06,2.06c-0.02,0.03-0.03,0.06-0.05,0.09c-0.37,0.69-0.75,1.39-1.15,2.1
			c-0.02,0.03-0.03,0.06-0.04,0.09c-0.41,0.72-0.85,1.45-1.29,2.21c-0.14,0.22-0.26,0.43-0.36,0.6c-0.12,0.22-0.26,0.42-0.39,0.64
			v0.01c-0.74,1.19-1.46,2.31-2.16,3.38c-6.59,9.47-11.76,13.95-14.24,15.77c-2.97,2.06-5.84,3.43-8.46,3.81
			c-1.03,0.17-2,0.27-2.94,0.31c-0.07,0-0.12,0.01-0.18,0.01h-0.05h-0.03c-2.72,0.16-5.04-0.22-6.97-1.14h-0.02
			c-0.21-0.11-0.41-0.21-0.61-0.32c-0.02-0.01-0.03-0.02-0.05-0.03c-0.18-0.11-0.37-0.22-0.55-0.34c-0.03-0.01-0.05-0.03-0.07-0.03
			c-0.17-0.12-0.34-0.23-0.51-0.36c-0.02-0.03-0.05-0.04-0.07-0.07c-0.16-0.12-0.32-0.25-0.46-0.38c-0.03-0.02-0.07-0.05-0.09-0.07
			c-0.14-0.14-0.28-0.27-0.41-0.41l-0.09-0.08c-0.13-0.15-0.27-0.3-0.4-0.46c-0.02-0.03-0.05-0.05-0.07-0.07
			c-0.15-0.17-0.29-0.36-0.43-0.56v-0.01c-2.03-2.82-2.95-6.99-2.7-12.46c0.22-4.83,0.92-8.8,1.65-11.79c0,0,0-0.01,0.01-0.02
			c0.06-0.24,0.12-0.48,0.18-0.71c0.01-0.02,0.02-0.04,0.02-0.04c0.07-0.25,0.12-0.47,0.19-0.7l0,0c0.36-1.32,0.72-2.38,1.01-3.18
			c3.77-11.1,9.31-18.73,12.56-22.57c0.14-0.16,0.32-0.33,0.51-0.5c0.14-0.12,0.43-0.27,0.8-0.2c0.51,0.1,0.47,0.56,0.49,0.7
			c-0.02,0.29-0.08,0.62-0.15,0.86c-2.92,9.86-7.51,18.15-11.75,24.35l0,0c0,0-3.23,8.63-1.64,18.21
			c4.63-4.75,16.81-18.68,22.99-38.99c0.43-1.71,4.59-18.63-3.73-19.93c-5.84-0.91-12.17,4.74-15.77,8.61
			c-6.6,7.25-14.5,19.42-16.84,37.66c-0.66,4.35-0.89,8.33-0.69,11.92c-8.87,6.46-25.94,13.3-36.66,8.05
			c-9.1-4.45-12.16-17.93-9.03-38.62c-4.15,1.23-8.14,1.61-10.54,1.72c-1.14,9.06-1.15,16.91-0.01,23.47
			c2.41,13.73,9.54,19.86,15.1,22.58c8.24,4.03,19.39,3.79,31.41-0.66c4.24-1.57,8.39-3.62,12.04-5.86
			c1.06,2.49,2.49,4.65,4.27,6.48c2.89,2.99,7.98,6.2,16.32,6.17c1.69-0.01,3.52-0.14,5.48-0.44c12.41-1.9,25.05-15.15,34.55-29.53
			c0.26-0.36,0.5-0.74,0.76-1.16c1.19-1.82,2.31-3.67,3.39-5.51c2.51-4.18,4.07-7,4.92-8.61c1.45,1.21,3.07,2.39,4.84,3.43
			c0.32,0.19,0.65,0.36,0.97,0.54c5.56,2.94,11.78,4.43,18.61,4.46c-0.35,0.99-0.68,2.02-0.98,3.07
			c-4.91,16.85,1.57,23.18,5.87,25.44c7.48,3.94,18.04,0.92,26.35-5.04c-0.37-1.32-0.66-2.84-0.62-4.31
			c0.12-3.69,3.09-2.85,3.02-0.99c-0.08,1.87,0.29,3.21,0.29,3.21c1.14,5.1,4.5,7.39,6.71,8.38c9.36,4.16,20.52-1.68,33.19-17.38
			c8.49-10.52,14.75-21.79,15.01-22.27L302,102.81z"/>
	</g>
</g>
</svg>
