<?xml version="1.0" encoding="utf-8"?>
<!-- Generator: Adobe Illustrator 25.0.0, SVG Export Plug-In . SVG Version: 6.00 Build 0)  -->
<svg version="1.1" id="Layer_1" xmlns="http://www.w3.org/2000/svg" xmlns:xlink="http://www.w3.org/1999/xlink" x="0px" y="0px"
	 viewBox="0 0 1080 1080" style="enable-background:new 0 0 1080 1080;" xml:space="preserve">
<style type="text/css">
	.st0{fill:#FECF28;}
</style>
<path class="st0" d="M832.55,1080H247.45C110.79,1080,0,969.21,0,832.55V247.45C0,110.79,110.79,0,247.45,0h585.11
	C969.21,0,1080,110.79,1080,247.45v585.11C1080,969.21,969.21,1080,832.55,1080z"/>
<g>
	<g>
		<g>
			<path d="M940.45,525.1c-11.8-5.18-22.97-7.89-33.25-8.92c1.47-4.84,4.97-15.76,11.4-32.8c9-23.78,15.91-33.68,17.84-38.28
				c1.65-3.96,0.21-9.83-4.15-12.42c-0.16-0.1-0.31-0.19-0.49-0.28c-0.21-0.11-0.44-0.21-0.67-0.31c-0.09-0.04-0.19-0.08-0.28-0.1
				c-0.3-0.13-0.6-0.23-0.93-0.31c-0.4-0.1-0.79-0.19-1.14-0.25c-0.08-0.01-0.14-0.01-0.21-0.03c-0.29-0.04-0.58-0.09-0.86-0.1
				c-0.03-0.01-0.08-0.01-0.11-0.01c-0.3-0.03-0.58-0.03-0.84-0.03h-0.05c-3.71,0.1-5.05,2.41-5.05,2.41
				c-1.27,1.5-2.36,3.73-3.98,7.13c-1.18,2.46-2.98,6.32-5.24,11.55c-10.21,19.36-19.9,30.55-26.76,36.81
				c-11.67,10.61-22.39,16.13-28.71,14.76c-1.63-0.35-4.05-1.38-6.1-6.15c-2.05-4.79-0.15-12.7,3.44-20.98
				c0.42-1.11,1.08-2.54,2.06-4.42c0.03-0.04,0.04-0.08,0.05-0.11c0.06-0.13,0.14-0.25,0.19-0.38c0.05-0.09,0.11-0.19,0.16-0.29
				c1.73-3.26,3.32-6.05,4.75-8.41v0.01c0.01-0.05,0.05-0.09,0.08-0.14c0.01-0.01,0.01-0.03,0.01-0.03
				c0.39-0.64,0.77-1.26,1.16-1.87c0.03-0.04,0.05-0.06,0.08-0.11c2.38-3.73,4.75-6.84,6.83-9.29c3.05-3.66,5.44-5.81,6.01-6.32
				c0.01-0.01,0.01-0.01,0.01-0.01c0.03-0.03,0.06-0.05,0.09-0.08c0.01-0.01,0.04-0.04,0.04-0.04l-0.03,0.04
				c2.05-2.05,4.17-4.05,6.45-6.03c0.96-0.84,1.86-1.48,2.72-2.01l0.01-0.01c0.04-0.01,0.09-0.05,0.15-0.09
				c0.48-0.3,1.94-1.23,3.38-1.42c0.63-0.09,1.26-0.04,1.77,0.28c0.3,0.2,0.52,0.44,0.67,0.72c0.08,0.13,0.13,0.29,0.18,0.45
				c0,0.75,0.87,1.38-4.95,6.34c-3.37,2.85-6.26,5.54-8.15,7.29c-0.75,0.67-1.47,1.36-2.16,2.09c-0.01,0.01-0.04,0.03-0.04,0.03l0,0
				c-5.34,5.58-8.82,12.51-9.43,13.76l1.26-0.63c9.4-3.85,21.24-7.66,29.44-15c0.35-0.3,0.67-0.6,0.98-0.91
				c0.1-0.09,0.19-0.19,0.29-0.28c0.23-0.21,0.45-0.43,0.67-0.64c0.09-0.1,0.18-0.18,0.28-0.28c0.25-0.26,0.49-0.52,0.73-0.75
				c0.04-0.04,0.08-0.08,0.11-0.11c0.26-0.29,0.52-0.58,0.77-0.85c0.06-0.09,0.13-0.16,0.2-0.24c0.18-0.21,0.35-0.43,0.53-0.63
				c0.06-0.09,0.14-0.16,0.19-0.25c0.2-0.24,0.38-0.45,0.55-0.68c0.03-0.05,0.08-0.1,0.11-0.14c0.19-0.28,0.39-0.55,0.58-0.8
				c0.04-0.06,0.09-0.13,0.13-0.18c0.15-0.21,0.28-0.43,0.42-0.63c0.05-0.06,0.1-0.15,0.14-0.23c0.15-0.2,0.26-0.42,0.39-0.62
				l0.1-0.14c0.14-0.26,0.29-0.52,0.43-0.75c0.01-0.04,0.04-0.08,0.05-0.1c0.11-0.21,0.23-0.43,0.33-0.62
				c0.03-0.06,0.06-0.13,0.09-0.19c0.09-0.19,0.18-0.36,0.26-0.55c0.03-0.06,0.05-0.11,0.08-0.15c0.1-0.23,0.19-0.45,0.29-0.68
				v-0.04c0.09-0.21,0.16-0.42,0.25-0.62c0.01-0.04,0.04-0.09,0.05-0.15c0.06-0.15,0.1-0.33,0.16-0.48c0.01-0.05,0.03-0.1,0.05-0.15
				c0.11-0.4,0.23-0.78,0.3-1.13c0.01-0.06,0.03-0.13,0.04-0.18l0.08-0.36c0.01-0.05,0.03-0.13,0.04-0.16
				c0.03-0.14,0.04-0.26,0.05-0.38c0.01-0.04,0.03-0.09,0.04-0.13c0.01-0.14,0.03-0.28,0.05-0.41c0.01-0.08,0.01-0.15,0.03-0.2
				c0-0.08,0-0.15,0.01-0.23c0.01-0.06,0.01-0.14,0.01-0.21c0-0.06,0.01-0.11,0.01-0.18c0.01-0.26,0.01-0.52,0-0.74v-0.06
				c0-0.09,0-0.16,0-0.24c-0.05-0.84-0.19-1.29-0.19-1.29h-0.01c-0.5-2.8-1.82-5.28-3.63-7.23c-6.15-6.55-19.12-7.88-31.04,2.54
				c-8.79,7.69-15.52,15.45-23.32,24.42c-5.77,6.66-12.31,14.21-21.06,23.32c-12.39,12.95-21.72,20.59-28.31,24.96
				c-0.83,0.52-7.57,4.63-10.02,2.36c-1.65-1.51-1.24-4.17-0.72-5.98c1.86-5.37,5.12-11.31,8.02-16.59c0.87-1.6,1.71-3.11,2.45-4.53
				c1.02-1.92,2.21-4.06,3.49-6.32c7.39-13.11,15.75-27.98,10.36-38.68c-1.9-3.76-5.41-6.18-9.64-6.65
				c-11.34-1.22-26.16,11.95-33.3,19.64c0,0,0,0-0.01,0.03c-4.66,4.69-11.29,14.54-11.29,14.54c-0.19,0.24-0.38,0.5-0.55,0.75h-0.01
				c-0.63,0.83-0.98,1.13-1.14,1.22c-0.2,0.11-0.45,0.21-0.69,0.3c-0.8,0.18-1.21-0.24-1.38-0.58l0,0
				c-0.01-0.01-0.01-0.03-0.01-0.03c-0.04-0.05-0.06-0.11-0.08-0.15c-0.03-0.15-0.05-0.3-0.05-0.45c0.03-0.1,0.04-0.18,0.05-0.29
				v-0.01c0.03-0.19,0.09-0.41,0.15-0.65c0.05-0.1,0.08-0.2,0.11-0.3c0.53-1.27,2.82-6.41,7.78-12.41
				c5.72-6.91,8.47-8.57,10.21-11.79c1.72-3.21,0.43-10.13-4.31-12.93v-0.01c-1.37-0.85-2.97-1.36-4.68-1.36h-0.04
				c-5.93,0.01-10.81,5.39-17.4,19.16c-0.08,0.16-0.15,0.33-0.24,0.49c-5.67,6.71-13.59,16.67-24.51,31.63
				c-14.1,19.32-24.32,28.91-31.12,33.69c-0.08,0.04-8.9,5.53-10.33-1.36c-0.8-3.91-0.93-8.57-0.45-14.1c0,0,2.48-24.39,13.92-42.81
				c2.68-4.39,3.8-5.44,4.98-5.82c0.28-0.06,0.69-0.06,1.14,0.3c0.53,0.53,0.38,1.33,0.36,1.41c-0.15,0.75-0.53,1.78-0.98,2.85
				c-0.13,0.29-1.12,2.43-3.46,7.06c-0.28,0.54-0.62,1.21-1.02,1.99c0,0,0,0.03-0.03,0.04c0,0.03-0.01,0.04-0.03,0.08
				c-2.7,5.47-7.63,16.42-9.62,27.24c2.53-2.34,4.49-4.45,5.66-5.8c6.7-7.81,10.86-15.88,13.25-21.6l0.09-0.19
				c0.01-0.04,0.01-0.06,0.03-0.1c0.21-0.52,0.43-1.02,0.62-1.51c0.55-1.4,1.04-2.77,1.46-4.1c0.4-1.31,0.59-2.05,0.59-2.05v0.01
				c2.74-10.48,0.82-18.39-5.53-21.41c-2.75-1.29-8.4-2.49-15.29,4.21c-3.65,3.54-7.43,9.09-11.29,16.44
				c-7.48,14.31-11.2,28.43-12.46,40.51c-16.08,17.7-27.06,21.47-31.04,22.25c-2.88,0.57-4.42,0.16-4.84-0.08
				c-0.4-0.64-1.57-3.44,1.16-12.39c2.36-7.77,6.66-16.93,11.2-26.41c4.69-9.76,8.85-19.94,10.91-25.14
				c1.33-3.34,2.55-6.55,3.44-9.03c0.73-2.01,1.33-3.68,1.55-5.25l0,0c0.03-0.11,0.03-0.2,0.03-0.3c0-0.05,0.03-0.09,0.03-0.14
				c0.01-0.23,0.04-0.44,0.05-0.65c0.01-0.2,0.01-0.4,0-0.59v-0.03c0-0.19-0.03-0.35-0.04-0.55v-0.01c-0.03-0.18-0.04-0.35-0.09-0.5
				c0-0.01,0-0.04,0-0.04c-0.03-0.15-0.06-0.33-0.11-0.48l-0.01-0.04c-0.04-0.15-0.09-0.3-0.15-0.45c0,0-0.01-0.03-0.01-0.04
				c-0.05-0.14-0.1-0.26-0.18-0.41c0,0-0.01-0.03-0.03-0.04c-0.06-0.14-0.14-0.26-0.21-0.39c0,0-0.01-0.04-0.03-0.05
				c-0.08-0.11-0.16-0.25-0.23-0.36c-0.03-0.03-0.04-0.04-0.05-0.05c-0.08-0.11-0.16-0.23-0.26-0.33c-0.01-0.04-0.03-0.06-0.05-0.09
				c-0.09-0.09-0.18-0.19-0.28-0.29c-0.03-0.04-0.06-0.06-0.09-0.09c-0.09-0.09-0.18-0.19-0.28-0.28c-0.19-0.19-0.4-0.36-0.6-0.52
				l-0.04-0.04c-0.75-0.58-1.43-0.93-1.94-1.14c-0.08-0.03-0.14-0.06-0.2-0.08c-0.09-0.04-0.18-0.08-0.25-0.1
				c-0.18-0.05-0.34-0.1-0.49-0.15c-0.03-0.01-0.05-0.03-0.05-0.03c-0.21-0.05-0.39-0.1-0.57-0.15c-0.28-0.05-0.54-0.1-0.79-0.14
				c-0.2-0.03-0.39-0.05-0.58-0.06c-2.11-0.24-3.91,0.13-5.42,0.84l-0.01,0.01c-0.2,0.09-0.41,0.2-0.59,0.3
				c-0.01,0-0.03,0.01-0.04,0.03c-0.18,0.1-0.36,0.21-0.54,0.33c-0.01,0.03-0.04,0.04-0.05,0.05c-0.16,0.11-0.33,0.23-0.48,0.35
				c-0.03,0.03-0.05,0.05-0.08,0.08c-0.15,0.11-0.29,0.23-0.41,0.35c-0.04,0.04-0.08,0.06-0.11,0.1c-0.11,0.11-0.23,0.23-0.34,0.34
				c-0.04,0.05-0.09,0.1-0.14,0.15c-0.09,0.11-0.18,0.23-0.28,0.33c-0.05,0.06-0.09,0.14-0.15,0.21c-0.09,0.09-0.15,0.18-0.21,0.28
				c-0.06,0.1-0.11,0.19-0.18,0.29c-0.05,0.08-0.1,0.15-0.15,0.23c-0.1,0.18-0.2,0.34-0.29,0.52c-1.41,2.84-7.29,10.97-16.37,23.73
				c-9.09,12.77-32.85,43.64-44.99,51.97c-0.03,0.03-0.04,0.03-0.06,0.05c-0.01,0.01-0.03,0.01-0.03,0.01
				c-6.02,4.12-9.54,4.53-11.57,3.91c-2.04-0.89-2.55-2.34-2.65-3.36c-0.01-0.15-0.01-0.3-0.01-0.46c0,0,0-0.06,0-0.11
				c0.03-0.42,0.1-0.83,0.25-1.28v-0.03c0.77-2.31,3.48-5.54,11.41-13.75c0.41-0.43,0.82-0.85,1.22-1.28
				c0.14-0.13,0.26-0.28,0.4-0.41c0.25-0.28,0.52-0.54,0.75-0.8c0.16-0.18,0.3-0.33,0.45-0.49c0.23-0.24,0.45-0.49,0.68-0.72
				c0.13-0.16,0.26-0.31,0.41-0.47c0.21-0.24,0.43-0.48,0.64-0.72c0.14-0.14,0.26-0.29,0.39-0.44c0.21-0.24,0.43-0.48,0.63-0.7
				c0.13-0.14,0.25-0.28,0.38-0.43c0.2-0.23,0.4-0.45,0.6-0.68c0.13-0.14,0.24-0.28,0.35-0.4c0.19-0.24,0.38-0.45,0.58-0.67
				c0.11-0.14,0.23-0.26,0.33-0.4c0.18-0.21,0.38-0.43,0.55-0.64c0.1-0.13,0.2-0.24,0.3-0.36c0.18-0.21,0.36-0.43,0.54-0.64
				c0.09-0.11,0.18-0.23,0.26-0.33c0.18-0.21,0.35-0.43,0.52-0.64c0.09-0.1,0.18-0.2,0.26-0.33c0.16-0.21,0.33-0.4,0.48-0.6
				c0.09-0.1,0.18-0.2,0.24-0.3c0.18-0.2,0.31-0.4,0.48-0.6c0.06-0.1,0.14-0.18,0.21-0.26c0.15-0.21,0.3-0.4,0.45-0.59
				c0.08-0.08,0.13-0.18,0.19-0.25c0.15-0.2,0.29-0.39,0.44-0.57c0.05-0.09,0.11-0.16,0.18-0.24c0.14-0.19,0.28-0.37,0.39-0.55
				c0.06-0.06,0.11-0.15,0.16-0.2c0.14-0.19,0.26-0.38,0.38-0.53c0.06-0.08,0.11-0.14,0.15-0.2c0.13-0.18,0.25-0.34,0.36-0.5
				c0.05-0.06,0.08-0.11,0.13-0.18c0.11-0.18,0.24-0.34,0.35-0.5c0.03-0.05,0.06-0.09,0.1-0.14c0.11-0.16,0.21-0.33,0.31-0.46
				c0.04-0.05,0.08-0.1,0.11-0.14c0.09-0.16,0.19-0.31,0.28-0.45c0.04-0.04,0.06-0.08,0.09-0.11c0.08-0.11,0.14-0.21,0.23-0.33
				c0.8-1.28,2.48-4.15,3.66-7.97c1.24-4.32,1.46-8.61-0.29-12.16c-1.29-2.56-3.37-4.4-5.96-5.39h-0.01
				c-3.91-1.76-5.96-0.75-10.78-0.87c-4.19-0.1-10.3-2.02-11.88-2.55c-18.1-6.06-18-11.33-17.39-13.12c0.08-0.14,0.13-0.29,0.2-0.41
				c0.15-0.21,1.16-1.52,2.94-0.28c1.95,1.36,1.37,3.28,6.69,6.01c5.33,2.75,7.25,2.02,7.25,2.02s0.29-0.23,0.7-4.29
				c0.05-0.48,0.11-0.96,0.15-1.41v-0.01v-0.03c0.42-5.3-0.47-9.35-2.65-12.47c-1.61-2.28-5.38-6-12.6-5.24
				c-14.07,1.48-16.19,10.77-16.52,13.58c-0.68,6.07,2.58,12.73,8.37,18.47c2.63,2.54,16.47,14.9,36.39,15.62
				c-0.1,0.25-0.23,0.54-0.35,0.82c-1.07,2.31-4.66,9.19-12.76,16.18l0,0c-4.74,4.06-10.58,9.09-14.36,15.3
				c-4.68,7.71-5.24,15.81-1.67,23.58c1.11,2.21,3.71,6.13,8.94,8.72c2.55,1.16,5.29,1.7,8.21,1.61c9.1-0.26,19.25-6.79,31.35-20.28
				v0.01c0,0,0.11-0.15,0.34-0.4c0.62-0.68,1.24-1.4,1.87-2.11c0.39-0.52,0.77-1.04,1.13-1.57c2.97-3.81,7.3-10.03,10.6-17.23
				c3.32-7.1,3.39-8.91,5.61-9.62c0.14-0.03,0.26-0.03,0.39-0.03h0.01c1.51,0.31,1.61,1.68,1.61,2.23
				c-0.08,0.83-0.36,2.04-1.07,3.73c-0.13,0.3-0.24,0.57-0.35,0.83c-7,16.57-10.12,29.99-3.16,38.94c3.37,4.35,9.18,6.6,15.9,6.19
				c7.78-0.47,16.64-4.34,25.92-11.25l0.45-0.34c0.31-0.25,0.63-0.49,0.97-0.73v-0.03l0.46-0.35c0,0-0.97-7.94-0.44-10.18
				c0.5-2.26,1.89-2.87,2.95-2.54c0,0,1.21,0.3,1.45,2.83c0.18,2.04,0.55,6.37,2.01,10.86c0.01,0.01,0.01,0.03,0.01,0.03
				c0.01,0.03,0.01,0.03,0.01,0.03c0.03,0.13,0.08,0.25,0.11,0.36c0.06,0.16,0.11,0.34,0.18,0.51c0.05,0.14,0.11,0.28,0.15,0.42
				c0.1,0.25,0.2,0.5,0.29,0.73c0.04,0.1,0.08,0.19,0.11,0.28c0.29,0.69,0.53,1.22,0.7,1.56c0.08,0.14,0.16,0.3,0.24,0.45
				c2.67,4.84,7.5,7.79,13.27,8.16c0.43,0.03,0.87,0.05,1.28,0.05c9.87-0.04,21.61-7.3,35.12-21.63c1.67-1.86,3.1-3.63,4.36-5.29
				v0.01c0,0,0.03-0.05,0.08-0.11c0.14-0.2,0.29-0.39,0.43-0.58c0.03-0.04,0.4-0.62,1.02-1.55c1.66-2.54,4.49-7.03,7.45-12.61
				c2.21-4.17,3.57-6.65,4.6-7.98c0.44-0.55,1.43-1.51,2.54-1.04c0.11,0.04,0.49,0.26,0.7,0.79c0.05,0.11,0.08,0.24,0.11,0.4l0,0
				c0,0,0,0.04,0.01,0.06c0,0,0,0.04,0,0.06c0.38,2.45-2.24,5.83-9.19,19.47c-4.47,8.72-4.97,13.41-4.53,15.88
				c0.63,2.05,2.01,3.62,4.12,4.63c6.36,3.05,10.79-2.65,14.02-6.84c2.6-3.38,6.27-8.45,10.9-14.88
				c6.08-8.45,14.24-19.77,24.39-33.29c0.79-1.06,4.2-5.46,7.84-9.13c1.19-1.17,2.43-2.25,3.66-3.29c0.09-0.09,0.2-0.18,0.29-0.24
				l0,0l0.01-0.01c0.18-0.15,0.35-0.29,0.52-0.43c1.29-1.07,4.73-3.72,6.34-3.07c1.86,0.78,0.98,4.3-0.15,6.78
				c-1.83,3.72-3.98,7.55-5.97,11.07c-1.33,2.35-2.58,4.58-3.68,6.67c-0.72,1.36-1.52,2.8-2.35,4.32
				c-7.32,13.32-17.32,31.55-6.93,43.42c2.77,3.17,6.57,4.89,11.02,4.99c11,0.26,27-10.12,47.55-30.84
				c-0.38,4.79,0.11,9.4,1.9,13.56c4.5,10.43,11.74,14,17.03,15.14c1.76,0.38,3.52,0.55,5.3,0.54c3.57-0.01,7.18-0.74,10.75-1.97
				l-0.01,0.01c0,0,12.42-3.57,16.98-11.51c2.35-4.05,2.53-9.31,4.85-10.57c0.05-0.03,1.62-0.79,2.56,0.55
				c0.3,0.55,0.54,1.42,0.43,2.75c-0.13,0.92-0.34,1.87-0.52,2.6c-0.08,0.25-0.14,0.49-0.19,0.7c-0.1,0.35-0.16,0.58-0.16,0.58
				c-0.51,1.62-1.03,3.28-1.53,4.94l-1.53,4.95c-0.34,1.16-0.69,2.28-1.02,3.37c-11.72,0.92-21.8,3.82-29.78,7.09
				c-20.72,8.45-38.09,23.8-44.25,39.09c-6.11,15.16-0.19,23.92,3.88,27.82c5.33,5.05,12.76,7.14,20.01,7.13
				c3.44-0.01,6.81-0.5,9.91-1.37c0.09-0.01,0.18-0.04,0.25-0.06c0.38-0.1,0.75-0.23,1.14-0.34c0.25-0.09,0.5-0.18,0.74-0.26
				c0.19-0.06,0.36-0.13,0.53-0.2c0.33-0.11,0.65-0.24,0.97-0.36c12.13-4.87,32.13-19.08,38.99-35.79
				c3.67-8.9,7.35-19.18,10.18-27.4c9.75,0.58,20.51,2.9,32.07,7.96c3.91,1.72,8.46-0.06,10.18-3.97
				C946.15,531.39,944.37,526.84,940.45,525.1 M853,576.83c-3.99,2.31-13.49,6.9-21.27,3.09c-0.62-0.34-1.16-0.73-1.61-1.17
				c-2.2-2.09-2.28-5.74-0.21-10.84c3.71-9.2,16.48-22.7,35.75-30.56c5.25-2.15,11.62-4.12,18.87-5.23
				C876.66,556.13,870.91,565.78,853,576.83"/>
			<path d="M963.31,540.45c-3.77-2.01-8.43-0.58-10.45,3.19c-2,3.77-0.57,8.43,3.19,10.45c5.63,3,11.85,7.14,13.02,8.67
				c1.5,2.09,3.83,3.22,6.22,3.24c1.57,0.03,3.17-0.43,4.56-1.42c3.47-2.45,4.29-7.28,1.82-10.77
				C978,548.6,967.61,542.74,963.31,540.45"/>
			<path d="M131.37,425.86c-11.75-1.86-21.47-10.3-21.63-10.42c-3.18-2.83-8.05-2.53-10.89,0.64c-2.84,3.19-2.55,8.08,0.63,10.91
				c0.53,0.48,13.11,11.55,29.47,14.13c0.43,0.08,0.83,0.1,1.24,0.1c3.72-0.01,7-2.72,7.59-6.51
				C138.46,430.5,135.58,426.53,131.37,425.86"/>
			<path d="M205.52,442c0.31-0.09,0.63-0.18,0.94-0.23c0.13-0.03,0.25-0.06,0.36-0.09c26.12-6.07,48.08-17.89,64.76-34.63
				c34.98-39.51,33.92-67.92,32.76-75.72c-4.01-23.49-26.99-41.03-57.42-14.96c-33.59,28.77-51.41,99.44-53.8,109.51
				c-0.24,0.97-0.45,1.92-0.67,2.88c-19.36,3.05-33.98,1.75-34.37,1.71c-4.24-0.42-8.02,2.69-8.44,6.93
				c-0.43,4.26,2.68,8.03,6.93,8.46c0.7,0.06,14.1,1.32,32.76-1.04C189.34,444.82,196.6,444.25,205.52,442 M210.56,419.93
				c2.11-7.86,4.3-15.3,6.52-22.35c4.01-12.21,14.97-42.02,32.1-61.26c6.69-6.99,14.32-12.48,22.99-15.4
				c7.22-1.57,21.84-0.47,15.52,28.72c0,0,0,0.03-0.01,0.05c-0.28,0.96-0.55,1.89-0.84,2.82c-2.04,6.2-7.97,21.68-21.12,38.16
				c-13.95,16.4-32.86,27.97-56.52,34.47C209.65,423.44,210.1,421.69,210.56,419.93"/>
			<path d="M554.64,459.25c0.05-0.1,0.38-0.79,0.92-1.94l0.3-0.75l-0.31-0.19c-3.17-1.48-10.76-5.71-13.19-7.76
				c-0.8,2.35-4.36,8.65-4.36,8.65c-14.78,24.95-38.69,53.47-50.32,48.32c-0.52-0.24-1.18-0.54-1.48-2.54
				c-0.58-3.82,0.79-9.94,3.8-17.49c11.69-14.57,19.6-25.74,27.89-42.8c1.22-2.49,3.75-7.69-0.1-11.97c-2.17-2.4-5.57-3.23-8.69-2.1
				c-1.99,0.72-4.12,2-10.18,10.19c-3.76,5.1-7.87,11.35-11.56,17.6c-3.65,6.16-7.66,13.6-10.82,21.18c0,0-4.02,6.35-11.14,13.53
				c-1.91,2.11-4.01,4.02-6.22,5.71l-0.01,0.03v-0.01c-9.05,6.88-19.79,9.83-24.71,7.24c-3.95-2.09-4.42-9.79-1.28-20.6
				c0.99-3.41,2.15-6.55,3.43-9.5h-0.01c0.03-0.05,0.04-0.09,0.08-0.14c0.1-0.24,0.19-0.48,0.29-0.69l-0.01,0.01
				c0,0,0.04-0.09,0.11-0.25c0.05-0.1,0.14-0.23,0.23-0.36c3.65-7.28,7.24-12.48,9.98-15.91c0.88-1.08,2.68-3.21,4.81-5.24
				c3.75-3.58,7.52-6.34,10.94-8.42h-0.03c0,0,0.06-0.04,0.15-0.09c1.8-1.09,3.48-2,5.03-2.77c1.97-0.99,4.14-1.99,5.77-2.44
				c0,0,1.46-0.47,1.86,0.31c0.3,1.4-1.66,3.53-6.84,6.57c0,0-0.01,0.01-0.03,0.03c-0.83,0.57-1.73,1.14-2.68,1.72l0,0
				c0,0-0.75,0.44-1.99,1.32c-1.32,0.94-2.43,1.8-3.26,2.49c-4.36,3.58-10.58,9.69-15.37,18.44c12.6-5.25,33.02-14.83,39.14-24.09
				c3.54-5.35,4.36-10.21,2.41-14.38c-0.42-0.88-0.93-1.66-1.51-2.35l-0.01-0.03c-1.09-1.45-2.21-2.55-3.27-3.42l-0.05-0.03
				c-0.05-0.05-0.09-0.08-0.15-0.13c-0.72-0.57-1.41-1.01-2.09-1.36c-2.88-1.37-6-1.14-8.27-0.65c-5.28,1.5-29.39,9.63-44.88,36.54
				c-16.14,1.77-27.22-2.75-34.72-8.98c-0.45-0.34-0.92-0.74-1.42-1.23c-6.76-6.55-11.07-15.81-11.07-15.81
				c-6.6-15.41-5.58-34.51,2.1-43.86h-0.03c0,0,3.47-4.68,5.72-4.44c0.04,0,0.1,0,0.15,0.01l0,0l0,0c0.97,0.11,1.51,0.98,1.47,2.29
				l0.01-0.01c0,0.05-0.01,0.11-0.01,0.16c0,0.15-0.03,0.33-0.05,0.49c-0.49,3.67-2.21,7.78-4.64,16.09
				c-0.03,0.11-0.05,0.21-0.1,0.3c-1.53,5.35-1.82,9.33-1.82,11.59c0.03,0.93,0.09,1.83,0.18,2.66v0.01
				c0.05,0.6,0.13,1.18,0.23,1.73v0.01c0.03,0.25,0.06,0.52,0.13,0.77c0,0,0,0.05,0.01,0.08c0.04,0.25,0.08,0.48,0.13,0.69
				c0,0,0,0.03,0,0.05c0.2,0.97,0.41,1.83,0.62,2.54c0,0,0,0.01,0,0.03c0.06,0.18,0.1,0.31,0.14,0.48l0.03,0.03
				c0.14,0.48,0.26,0.87,0.36,1.14v0.01c0.03,0.09,0.06,0.16,0.09,0.23c0,0,0.01,0.04,0.01,0.05c0.01,0.05,0.03,0.09,0.05,0.14
				c0,0,0,0.03,0.03,0.04c0.01,0.04,0.03,0.06,0.03,0.06s0,0.03,0.01,0.04l0.01,0.03v-0.01c2.45,7.23,6.39,12.57,7.94,14.54
				c2.68-6.45,8.61-23.31,10.23-48.61c0.25-11.43-2.11-18.33-7.34-21.84c-1.91-1.29-4.49-2.3-7.76-2.07c0,0-8.75,0.01-17.45,10.5
				c-0.23,0.28-0.43,0.54-0.64,0.79c-0.04,0.04-0.05,0.09-0.09,0.11c-0.48,0.6-0.93,1.23-1.37,1.86c-0.13,0.16-0.24,0.34-0.35,0.49
				l0,0c-9.96,14.9-10.84,38.89-1.18,59.17c0.53,1.13,1.11,2.24,1.71,3.32c0,0-1.07,3.54-3.26,9.11c-0.16,0.42-0.31,0.82-0.49,1.24
				c-0.01,0.04-0.03,0.06-0.04,0.09c-0.16,0.41-0.33,0.8-0.5,1.22c-0.01,0.04-0.03,0.06-0.04,0.1c-0.18,0.42-0.35,0.85-0.54,1.29
				c-0.01,0.01-0.03,0.04-0.03,0.05c-0.18,0.44-0.38,0.89-0.58,1.35c-0.78,1.84-1.68,3.78-2.66,5.82c-0.47,1.01-0.97,2.04-1.51,3.08
				c-0.01,0.01-0.01,0.05-0.04,0.06c-0.5,1.03-1.04,2.07-1.61,3.13c-0.03,0.04-0.05,0.09-0.08,0.14c-0.57,1.04-1.14,2.11-1.75,3.18
				c-0.03,0.05-0.05,0.09-0.06,0.14c-0.63,1.09-1.28,2.2-1.95,3.34c-0.21,0.33-0.39,0.65-0.55,0.9c-0.19,0.33-0.39,0.64-0.59,0.97
				v0.01c-1.12,1.8-2.21,3.51-3.28,5.12c-9.99,14.36-17.82,21.14-21.58,23.91c-4.5,3.12-8.85,5.19-12.82,5.78
				c-1.56,0.25-3.03,0.4-4.45,0.47c-0.1,0-0.18,0.01-0.28,0.01h-0.08h-0.05c-4.12,0.24-7.64-0.34-10.56-1.72h-0.03
				c-0.31-0.16-0.63-0.31-0.92-0.49c-0.03-0.01-0.05-0.03-0.08-0.04c-0.28-0.16-0.55-0.33-0.83-0.51c-0.04-0.01-0.08-0.04-0.1-0.05
				c-0.26-0.18-0.51-0.35-0.77-0.55c-0.03-0.04-0.08-0.06-0.11-0.1c-0.24-0.18-0.48-0.38-0.69-0.58c-0.05-0.03-0.1-0.08-0.14-0.1
				c-0.21-0.21-0.43-0.4-0.63-0.63l-0.14-0.13c-0.2-0.23-0.42-0.45-0.6-0.69c-0.04-0.04-0.08-0.08-0.1-0.11
				c-0.23-0.26-0.44-0.55-0.65-0.84v-0.01c-3.08-4.27-4.48-10.6-4.1-18.89c0.34-7.32,1.4-13.34,2.5-17.88c0,0,0-0.01,0.01-0.03
				c0.09-0.36,0.19-0.73,0.28-1.08c0.01-0.03,0.03-0.06,0.03-0.06c0.1-0.38,0.19-0.72,0.29-1.06l0,0c0.54-2,1.09-3.61,1.53-4.83
				c5.72-16.82,14.1-28.4,19.03-34.22c0.21-0.24,0.48-0.5,0.78-0.75c0.21-0.18,0.65-0.4,1.21-0.3c0.77,0.15,0.72,0.84,0.74,1.06
				c-0.03,0.44-0.13,0.94-0.23,1.31c-4.42,14.95-11.39,27.5-17.81,36.91l0,0c0,0-4.89,13.09-2.49,27.6
				c7.01-7.2,25.48-28.32,34.85-59.09c0.65-2.59,6.96-28.25-5.66-30.21c-8.85-1.38-18.44,7.18-23.9,13.05
				c-10.01,10.99-21.97,29.44-25.52,57.08c-0.99,6.59-1.35,12.62-1.04,18.06c-13.45,9.79-39.32,20.16-55.57,12.21
				c-13.79-6.74-18.43-27.18-13.69-58.54c-6.28,1.86-12.33,2.44-15.98,2.61c-1.73,13.73-1.75,25.63-0.01,35.57
				c3.66,20.82,14.46,30.11,22.89,34.23c12.48,6.11,29.39,5.74,47.6-1.01c6.42-2.38,12.72-5.48,18.25-8.89
				c1.61,3.77,3.77,7.05,6.47,9.82c4.39,4.54,12.09,9.39,24.74,9.35c2.56-0.01,5.33-0.21,8.31-0.67
				c18.81-2.88,37.98-22.97,52.37-44.76c0.39-0.54,0.75-1.12,1.16-1.76c1.8-2.77,3.51-5.57,5.14-8.36
				c3.81-6.34,6.17-10.61,7.45-13.05c2.2,1.84,4.65,3.62,7.34,5.19c0.49,0.29,0.98,0.55,1.47,0.82c8.42,4.46,17.85,6.71,28.21,6.76
				c-0.53,1.5-1.03,3.05-1.48,4.65c-7.44,25.54,2.38,35.13,8.9,38.57c11.34,5.97,27.34,1.4,39.94-7.64c-0.57-2-1.01-4.31-0.94-6.54
				c0.18-5.59,4.69-4.32,4.58-1.5c-0.13,2.83,0.44,4.86,0.44,4.86c1.73,7.73,6.83,11.2,10.17,12.71
				c14.19,6.31,31.1-2.55,50.31-26.35c12.87-15.94,22.35-33.04,22.75-33.75L554.64,459.25z"/>
		</g>
	</g>
	<g>
		<path d="M253.56,632.74h-59.52c-1.15,0-2.08,0.93-2.08,2.08V780.5c0,1.16,0.93,2.09,2.08,2.09h32.05c1.15,0,2.08-0.93,2.08-2.09
			v-41.62h22.27c37.05,0,60.98-20.91,60.98-53.28v-0.43C311.41,653.31,288.7,632.74,253.56,632.74 M274.78,686.23
			c0,12.13-9.15,19.98-23.3,19.98h-23.32v-40.38h22.68c15.44,0,23.94,7.08,23.94,19.98V686.23z"/>
		<path d="M650.76,664.36v-29.54c0-1.15-0.93-2.08-2.08-2.08H527.96c-1.15,0-2.08,0.93-2.08,2.08v29.54c0,1.16,0.93,2.09,2.08,2.09
			h42.27V780.5c0,1.16,0.92,2.08,2.08,2.08h32.03c1.16,0,2.08-0.92,2.08-2.08V666.45h42.27
			C649.83,666.45,650.76,665.52,650.76,664.36"/>
		<path d="M735.93,632.97c-0.32-0.78-1.07-1.27-1.91-1.27h-29.55c-0.84,0-1.59,0.49-1.92,1.27l-62.43,146.71
			c-0.28,0.65-0.22,1.39,0.17,1.96c0.4,0.59,1.05,0.93,1.74,0.93h32.68c0.84,0,1.6-0.49,1.92-1.28l12.79-31.39h58.83l12.78,31.39
			c0.34,0.79,1.08,1.28,1.94,1.28h33.51c0.7,0,1.34-0.34,1.73-0.93c0.39-0.57,0.45-1.32,0.18-1.96L735.93,632.97z M702.56,717.44
			l16.26-39.66l16.26,39.66H702.56z"/>
		<path d="M350.23,624.69h37.4c1.9,0,3.44-1.55,3.44-3.44V609.6c0-1.9-1.54-3.44-3.44-3.44h-37.4c-1.9,0-3.44,1.54-3.44,3.44v11.65
			C346.79,623.14,348.33,624.69,350.23,624.69"/>
		<path d="M935.54,777.93l-12.32-11.85l-30.73-31.31c23.25-1.9,41.61-23.97,41.61-50.96c0-28.2-20.09-51.09-44.85-51.09
			c-0.49,0-0.98,0.04-1.46,0.05c-0.74-0.01-1.5-0.05-2.25-0.05h-66.6c-1.15,0-2.08,0.94-2.08,2.09V780.5c0,1.16,0.93,2.09,2.08,2.09
			h32.05c1.15,0,2.08-0.93,2.08-2.09v-44.53h0.12l43.48,45.69c0.38,0.58,1.02,0.93,1.72,0.93h34.13h1.1h0.28h0.83h0.57
			c1.37-0.01,1.78-0.62,2.03-1.6C937.34,780.51,937.16,779.5,935.54,777.93 M833.04,694.77c-6.2,1.15-12.17-2.95-13.3-9.15
			c-0.06-0.31-0.12-0.62-0.16-0.94v-2.23c0.05-0.39,0.13-0.78,0.21-1.16c0.41-2.03,1.29-3.82,2.7-5.35c2.58-2.8,5.77-4.04,9.55-3.72
			c5.1,0.45,9.28,4.34,10.15,9.38C843.24,687.78,839.19,693.63,833.04,694.77 M857.55,699.49l-8.02-7.85
			c1.27-2.47,1.89-5.18,1.89-8.14c-0.01-3.14-0.76-5.99-2.21-8.56l8-7.8C863.78,676.67,863.94,689.83,857.55,699.49 M864.81,706.56
			c5.81-6.56,8.84-14.24,8.81-23.03c-0.03-8.91-3.2-16.7-9.33-23.34l8.31-8.11c16.39,16.53,17.48,44.6,0.53,62.65L864.81,706.56z
			 M890.51,731.67l-8.89-8.68c9.56-11.83,13.07-23.08,14.3-30.29c0.28-1.89,0.49-3.81,0.58-5.72c0.12-2.32,0.13-4.68-0.05-7.01
			c-0.98-13.69-5.98-25.6-15.14-35.65c-0.1-0.12-0.19-0.22-0.32-0.36c0.12-0.12,0.21-0.25,0.32-0.35c0.13-0.15,0.27-0.3,0.41-0.44
			l7.94-7.76c0.01,0.01,0.03,0.03,0.04,0.05c6.95,7.45,12.03,16.08,15.27,25.87c1.55,4.68,2.58,9.48,3.15,14.4
			c0.22,1.93,0.37,3.86,0.44,5.81c0,0.15,0.03,0.28,0.06,0.44v4.06c-0.04,0.16-0.05,0.32-0.06,0.48c-0.09,1.27-0.14,2.54-0.26,3.8
			c-0.25,3.16-0.72,6.28-1.42,9.35c-2.56,11.55-7.61,21.75-15.19,30.67C891.29,730.79,890.91,731.23,890.51,731.67"/>
		<path d="M503.4,632.72h-31.62c-1.16,0-2.09,0.94-2.09,2.08v83.55l-64.53-84.8c-0.39-0.52-0.99-0.83-1.65-0.83h-29.55
			c-1.15,0-2.07,0.94-2.07,2.08v15.29v49.62h17.04l-17.04,51.99v28.79c0,1.16,0.92,2.08,2.07,2.08h31.65c1.14,0,2.08-0.92,2.08-2.08
			v-86.44l66.81,87.71c0.4,0.53,1.01,0.81,1.65,0.81h27.27c1.15,0,2.08-0.92,2.08-2.08V634.8
			C505.48,633.67,504.55,632.72,503.4,632.72"/>
		<path d="M364.31,632.72h-32.05c-1.15,0-2.08,0.94-2.08,2.08V780.5c0,1.16,0.93,2.08,2.08,2.08h32.05c1.16,0,2.09-0.92,2.09-2.08
			v-12.1v-49.47h-21.48l21.48-54.87V634.8C366.4,633.67,365.47,632.72,364.31,632.72"/>
	</g>
</g>
</svg>
