<?xml version="1.0" encoding="utf-8"?>
<!-- Generator: Adobe Illustrator 25.0.0, SVG Export Plug-In . SVG Version: 6.00 Build 0)  -->
<svg version="1.1" id="Layer_1" xmlns="http://www.w3.org/2000/svg" xmlns:xlink="http://www.w3.org/1999/xlink" x="0px" y="0px"
	 viewBox="0 0 1080 583.96" style="enable-background:new 0 0 1080 583.96;" xml:space="preserve">
<style type="text/css">
	.st0{fill:#FECF28;}
</style>
<g>
	<g>
		<g>
			<path d="M1028.02,270.17c-14.38-6.31-27.99-9.62-40.52-10.88c1.79-5.9,6.05-19.21,13.89-39.97
				c10.97-28.98,19.39-41.04,21.74-46.65c2.01-4.83,0.26-11.98-5.06-15.14c-0.2-0.12-0.38-0.23-0.6-0.34
				c-0.26-0.14-0.54-0.26-0.81-0.38c-0.11-0.05-0.23-0.09-0.34-0.12c-0.37-0.15-0.73-0.28-1.13-0.38c-0.49-0.12-0.96-0.23-1.39-0.31
				c-0.09-0.01-0.17-0.01-0.26-0.03c-0.35-0.05-0.71-0.11-1.04-0.12c-0.03-0.02-0.09-0.02-0.14-0.02c-0.37-0.03-0.71-0.03-1.03-0.03
				h-0.06c-4.52,0.12-6.16,2.94-6.16,2.94c-1.55,1.82-2.88,4.55-4.86,8.69c-1.44,3-3.63,7.71-6.39,14.08
				c-12.44,23.59-24.25,37.23-32.61,44.85c-14.22,12.93-27.28,19.65-34.99,17.98c-1.99-0.43-4.93-1.68-7.43-7.49
				c-2.5-5.84-0.18-15.47,4.2-25.57c0.51-1.35,1.32-3.09,2.51-5.39c0.03-0.05,0.05-0.09,0.06-0.14c0.08-0.15,0.17-0.31,0.23-0.46
				c0.06-0.11,0.14-0.23,0.2-0.35c2.11-3.97,4.04-7.37,5.79-10.25v0.02c0.01-0.06,0.06-0.11,0.09-0.17
				c0.02-0.02,0.02-0.03,0.02-0.03c0.47-0.78,0.93-1.53,1.41-2.28c0.03-0.05,0.06-0.08,0.09-0.14c2.9-4.55,5.79-8.33,8.32-11.32
				c3.72-4.46,6.63-7.08,7.32-7.71c0.02-0.01,0.02-0.01,0.02-0.01c0.03-0.03,0.08-0.06,0.11-0.09c0.02-0.01,0.05-0.05,0.05-0.05
				l-0.03,0.05c2.5-2.5,5.09-4.93,7.86-7.35c1.16-1.03,2.27-1.81,3.31-2.45l0.02-0.01c0.05-0.02,0.11-0.06,0.18-0.11
				c0.58-0.37,2.36-1.5,4.12-1.73c0.77-0.11,1.53-0.05,2.16,0.34c0.37,0.24,0.63,0.54,0.81,0.87c0.09,0.15,0.15,0.35,0.21,0.55
				c0,0.92,1.06,1.69-6.04,7.72c-4.11,3.48-7.63,6.76-9.93,8.88c-0.92,0.81-1.79,1.65-2.63,2.54c-0.02,0.02-0.05,0.03-0.05,0.03l0,0
				c-6.51,6.8-10.75,15.24-11.49,16.77l1.53-0.77c11.46-4.69,25.89-9.33,35.88-18.28c0.43-0.37,0.81-0.74,1.19-1.1
				c0.12-0.11,0.23-0.23,0.35-0.34c0.28-0.26,0.55-0.52,0.81-0.78c0.11-0.12,0.21-0.21,0.34-0.34c0.31-0.32,0.6-0.63,0.89-0.92
				c0.05-0.05,0.09-0.09,0.14-0.14c0.32-0.35,0.63-0.7,0.93-1.04c0.08-0.11,0.15-0.2,0.25-0.29c0.21-0.26,0.43-0.52,0.64-0.77
				c0.08-0.11,0.17-0.2,0.23-0.31c0.25-0.29,0.46-0.55,0.67-0.83c0.03-0.06,0.09-0.12,0.14-0.17c0.23-0.34,0.48-0.67,0.71-0.98
				c0.05-0.08,0.11-0.15,0.15-0.21c0.18-0.26,0.34-0.52,0.51-0.77c0.06-0.08,0.12-0.18,0.17-0.28c0.18-0.25,0.32-0.51,0.48-0.75
				l0.12-0.17c0.17-0.32,0.35-0.63,0.52-0.92c0.02-0.05,0.05-0.09,0.06-0.12c0.14-0.26,0.28-0.52,0.4-0.75
				c0.03-0.08,0.08-0.15,0.11-0.23c0.11-0.23,0.21-0.44,0.32-0.67c0.03-0.08,0.06-0.14,0.09-0.18c0.12-0.28,0.23-0.55,0.35-0.83
				v-0.05c0.11-0.26,0.2-0.51,0.31-0.75c0.02-0.05,0.05-0.11,0.06-0.18c0.08-0.18,0.12-0.4,0.2-0.58c0.02-0.06,0.03-0.12,0.06-0.18
				c0.14-0.49,0.28-0.95,0.37-1.38c0.01-0.08,0.03-0.15,0.05-0.21l0.09-0.44c0.01-0.06,0.03-0.15,0.05-0.2
				c0.03-0.17,0.05-0.32,0.06-0.46c0.02-0.05,0.03-0.11,0.05-0.15c0.02-0.17,0.03-0.34,0.06-0.51c0.02-0.09,0.02-0.18,0.03-0.25
				c0-0.09,0-0.18,0.02-0.28c0.01-0.08,0.01-0.17,0.01-0.26c0-0.08,0.02-0.14,0.02-0.21c0.01-0.32,0.01-0.63,0-0.9v-0.08
				c0-0.11,0-0.2,0-0.29c-0.06-1.03-0.23-1.58-0.23-1.58h-0.02c-0.61-3.42-2.22-6.43-4.43-8.81c-7.49-7.98-23.3-9.61-37.82,3.09
				c-10.71,9.38-18.92,18.83-28.42,29.76c-7.03,8.12-15,17.31-25.66,28.42c-15.1,15.78-26.47,25.09-34.5,30.42
				c-1.01,0.63-9.22,5.64-12.21,2.88c-2.01-1.84-1.52-5.09-0.87-7.29c2.27-6.54,6.23-13.79,9.77-20.22
				c1.06-1.95,2.08-3.78,2.99-5.52c1.24-2.34,2.7-4.95,4.26-7.71c9.01-15.98,19.2-34.1,12.62-47.14c-2.31-4.58-6.59-7.54-11.75-8.1
				c-13.82-1.49-31.88,14.57-40.58,23.93c0,0,0,0-0.02,0.03c-5.68,5.71-13.76,17.72-13.76,17.72c-0.23,0.29-0.46,0.61-0.67,0.92
				h-0.02c-0.77,1.01-1.19,1.38-1.39,1.49c-0.24,0.14-0.55,0.26-0.84,0.37c-0.98,0.21-1.47-0.29-1.69-0.7l0,0
				c-0.01-0.02-0.01-0.03-0.01-0.03c-0.05-0.06-0.08-0.14-0.09-0.18c-0.03-0.18-0.06-0.37-0.06-0.55c0.03-0.12,0.05-0.21,0.06-0.35
				v-0.02c0.03-0.23,0.11-0.51,0.18-0.8c0.06-0.12,0.09-0.25,0.14-0.37c0.64-1.55,3.43-7.81,9.48-15.12
				c6.97-8.43,10.33-10.45,12.44-14.37c2.1-3.91,0.52-12.35-5.25-15.76v-0.02c-1.67-1.04-3.61-1.65-5.7-1.65h-0.05
				c-7.23,0.01-13.17,6.57-21.2,23.35c-0.09,0.2-0.18,0.4-0.29,0.6c-6.91,8.18-16.56,20.31-29.87,38.54
				c-17.19,23.55-29.64,35.23-37.93,41.05c-0.09,0.05-10.85,6.74-12.59-1.65c-0.98-4.76-1.13-10.45-0.55-17.19
				c0,0,3.02-29.72,16.96-52.18c3.26-5.35,4.63-6.63,6.07-7.09c0.34-0.08,0.84-0.08,1.39,0.37c0.64,0.64,0.46,1.62,0.44,1.72
				c-0.18,0.92-0.64,2.18-1.19,3.48c-0.15,0.35-1.36,2.96-4.21,8.61c-0.34,0.66-0.75,1.47-1.24,2.42c0,0,0,0.03-0.03,0.05
				c0,0.03-0.02,0.05-0.03,0.09c-3.29,6.66-9.3,20.01-11.72,33.2c3.08-2.85,5.47-5.42,6.89-7.06c8.17-9.51,13.24-19.35,16.15-26.32
				l0.11-0.23c0.02-0.05,0.02-0.08,0.03-0.12c0.26-0.63,0.52-1.24,0.75-1.84c0.67-1.7,1.27-3.37,1.78-4.99
				c0.49-1.59,0.72-2.5,0.72-2.5v0.01c3.34-12.78,1-22.41-6.74-26.09c-3.35-1.58-10.23-3.03-18.63,5.13
				c-4.44,4.32-9.05,11.08-13.76,20.04c-9.11,17.43-13.65,34.65-15.18,49.37c-19.59,21.57-32.98,26.17-37.82,27.12
				c-3.51,0.69-5.39,0.2-5.9-0.09c-0.49-0.78-1.91-4.2,1.41-15.1c2.88-9.47,8.12-20.64,13.65-32.19
				c5.71-11.89,10.78-24.3,13.3-30.64c1.62-4.07,3.11-7.98,4.2-11c0.89-2.45,1.62-4.49,1.88-6.4l0,0c0.03-0.14,0.03-0.25,0.03-0.37
				c0-0.06,0.03-0.11,0.03-0.17c0.01-0.28,0.05-0.54,0.06-0.8c0.01-0.24,0.01-0.49,0-0.72v-0.03c0-0.23-0.03-0.43-0.05-0.67v-0.02
				c-0.03-0.21-0.05-0.43-0.11-0.61c0-0.01,0-0.05,0-0.05c-0.03-0.18-0.08-0.4-0.14-0.58l-0.02-0.05c-0.05-0.18-0.11-0.37-0.18-0.55
				c0,0-0.02-0.03-0.02-0.05c-0.06-0.17-0.12-0.32-0.21-0.51c0,0-0.02-0.03-0.03-0.05c-0.08-0.17-0.17-0.32-0.26-0.47
				c0,0-0.02-0.05-0.03-0.06c-0.09-0.14-0.2-0.31-0.28-0.44c-0.03-0.03-0.05-0.05-0.06-0.06c-0.09-0.14-0.2-0.28-0.32-0.4
				c-0.02-0.05-0.03-0.08-0.06-0.11c-0.11-0.11-0.21-0.23-0.34-0.35c-0.03-0.05-0.08-0.08-0.11-0.11c-0.11-0.11-0.21-0.23-0.34-0.34
				c-0.23-0.23-0.49-0.44-0.74-0.63l-0.05-0.05c-0.92-0.7-1.75-1.13-2.36-1.39c-0.09-0.03-0.17-0.08-0.25-0.09
				c-0.11-0.05-0.21-0.09-0.31-0.12c-0.21-0.06-0.41-0.12-0.6-0.18c-0.03-0.01-0.06-0.03-0.06-0.03c-0.26-0.06-0.48-0.12-0.69-0.18
				c-0.34-0.06-0.66-0.12-0.97-0.17c-0.24-0.03-0.47-0.06-0.7-0.08c-2.57-0.29-4.76,0.15-6.6,1.03l-0.02,0.01
				c-0.24,0.11-0.51,0.25-0.72,0.37c-0.01,0-0.03,0.02-0.05,0.03c-0.21,0.12-0.44,0.26-0.66,0.4c-0.02,0.03-0.05,0.05-0.06,0.06
				c-0.2,0.14-0.4,0.28-0.58,0.43c-0.03,0.03-0.06,0.06-0.09,0.09c-0.18,0.14-0.35,0.28-0.51,0.43c-0.05,0.05-0.09,0.08-0.14,0.12
				c-0.14,0.14-0.28,0.28-0.41,0.41c-0.05,0.06-0.11,0.12-0.17,0.18c-0.11,0.14-0.21,0.28-0.34,0.4c-0.06,0.08-0.11,0.17-0.18,0.26
				c-0.11,0.11-0.18,0.21-0.26,0.34c-0.08,0.12-0.14,0.23-0.21,0.35c-0.06,0.09-0.12,0.18-0.18,0.28c-0.12,0.21-0.24,0.41-0.35,0.63
				c-1.72,3.46-8.88,13.37-19.95,28.92c-11.08,15.56-40.03,53.19-54.83,63.33c-0.03,0.03-0.05,0.03-0.08,0.06
				c-0.01,0.02-0.03,0.02-0.03,0.02c-7.34,5.02-11.63,5.51-14.09,4.76c-2.48-1.09-3.11-2.85-3.23-4.09
				c-0.01-0.18-0.01-0.37-0.01-0.57c0,0,0-0.08,0-0.14c0.03-0.51,0.12-1.01,0.31-1.56V240c0.93-2.82,4.24-6.76,13.91-16.76
				c0.51-0.52,1-1.04,1.49-1.56c0.17-0.15,0.32-0.34,0.49-0.51c0.31-0.34,0.63-0.66,0.92-0.98c0.2-0.21,0.37-0.4,0.55-0.6
				c0.28-0.29,0.55-0.6,0.83-0.87c0.15-0.2,0.32-0.38,0.51-0.57c0.26-0.29,0.52-0.58,0.78-0.87c0.17-0.17,0.32-0.35,0.47-0.54
				c0.26-0.29,0.52-0.58,0.77-0.86c0.15-0.17,0.31-0.34,0.46-0.52c0.24-0.28,0.49-0.55,0.74-0.83c0.15-0.17,0.29-0.34,0.43-0.49
				c0.23-0.29,0.46-0.55,0.7-0.81c0.14-0.17,0.28-0.32,0.4-0.49c0.21-0.26,0.46-0.52,0.67-0.78c0.12-0.15,0.24-0.29,0.37-0.44
				c0.21-0.26,0.44-0.52,0.66-0.78c0.11-0.14,0.21-0.28,0.32-0.4c0.21-0.26,0.43-0.52,0.63-0.78c0.11-0.12,0.21-0.24,0.32-0.4
				c0.2-0.26,0.4-0.49,0.58-0.73c0.11-0.12,0.21-0.25,0.29-0.37c0.21-0.25,0.38-0.49,0.58-0.74c0.08-0.12,0.17-0.21,0.26-0.32
				c0.18-0.26,0.37-0.49,0.55-0.72c0.09-0.09,0.15-0.21,0.23-0.31c0.18-0.25,0.35-0.48,0.54-0.69c0.06-0.11,0.14-0.2,0.21-0.29
				c0.17-0.23,0.34-0.44,0.47-0.67c0.08-0.08,0.14-0.18,0.2-0.24c0.17-0.23,0.32-0.46,0.46-0.64c0.08-0.09,0.14-0.17,0.18-0.25
				c0.15-0.21,0.31-0.41,0.44-0.61c0.06-0.08,0.09-0.14,0.15-0.21c0.14-0.21,0.29-0.41,0.43-0.61c0.03-0.06,0.08-0.11,0.12-0.17
				c0.14-0.2,0.26-0.4,0.38-0.57c0.05-0.06,0.09-0.12,0.14-0.17c0.11-0.2,0.23-0.38,0.34-0.55c0.05-0.05,0.08-0.09,0.11-0.14
				c0.09-0.14,0.17-0.26,0.28-0.4c0.98-1.56,3.02-5.06,4.46-9.71c1.52-5.27,1.78-10.49-0.35-14.81c-1.58-3.13-4.11-5.36-7.26-6.57
				h-0.02c-4.76-2.15-7.26-0.92-13.14-1.06c-5.1-0.12-12.55-2.47-14.48-3.11c-22.06-7.38-21.94-13.8-21.19-15.99
				c0.09-0.17,0.15-0.35,0.24-0.51c0.18-0.26,1.41-1.85,3.59-0.34c2.37,1.65,1.67,4,8.15,7.32c6.5,3.36,8.84,2.47,8.84,2.47
				s0.35-0.28,0.86-5.22c0.06-0.58,0.14-1.16,0.18-1.72v-0.01v-0.03c0.51-6.46-0.57-11.4-3.23-15.2c-1.96-2.77-6.56-7.31-15.35-6.39
				c-17.14,1.81-19.73,13.13-20.13,16.54c-0.83,7.4,3.14,15.52,10.2,22.5c3.2,3.09,20.07,18.15,44.35,19.04
				c-0.12,0.31-0.28,0.66-0.43,1c-1.3,2.82-5.68,11.2-15.55,19.72l0,0c-5.78,4.95-12.9,11.08-17.49,18.64
				c-5.7,9.39-6.39,19.27-2.04,28.74c1.35,2.7,4.52,7.48,10.89,10.63c3.11,1.41,6.45,2.07,10,1.96
				c11.09-0.32,23.45-8.27,38.21-24.71v0.01c0,0,0.14-0.18,0.41-0.49c0.75-0.83,1.52-1.7,2.28-2.57c0.47-0.63,0.93-1.27,1.38-1.91
				c3.62-4.64,8.9-12.22,12.91-21c4.04-8.66,4.14-10.86,6.83-11.72c0.17-0.03,0.32-0.03,0.47-0.03h0.02
				c1.84,0.38,1.96,2.05,1.96,2.71c-0.09,1.01-0.44,2.48-1.3,4.55c-0.15,0.37-0.29,0.69-0.43,1.01
				c-8.53,20.19-12.33,36.55-3.84,47.46c4.11,5.3,11.18,8.04,19.38,7.54c9.48-0.57,20.28-5.29,31.59-13.71l0.55-0.41
				c0.38-0.31,0.77-0.6,1.18-0.89v-0.03l0.57-0.43c0,0-1.18-9.68-0.54-12.41c0.61-2.76,2.3-3.49,3.6-3.09c0,0,1.47,0.37,1.76,3.45
				c0.21,2.48,0.67,7.77,2.45,13.24c0.01,0.02,0.01,0.03,0.01,0.03c0.02,0.03,0.02,0.03,0.02,0.03c0.03,0.15,0.09,0.31,0.14,0.44
				c0.08,0.2,0.14,0.41,0.21,0.63c0.06,0.17,0.14,0.34,0.18,0.51c0.12,0.31,0.25,0.61,0.35,0.89c0.05,0.12,0.09,0.23,0.14,0.34
				c0.35,0.84,0.64,1.49,0.86,1.9c0.09,0.17,0.2,0.37,0.29,0.55c3.25,5.9,9.15,9.5,16.18,9.94c0.52,0.03,1.06,0.06,1.56,0.06
				c12.03-0.05,26.33-8.9,42.8-26.36c2.04-2.27,3.78-4.43,5.32-6.45v0.02c0,0,0.03-0.06,0.09-0.14c0.17-0.24,0.35-0.47,0.52-0.7
				c0.03-0.05,0.49-0.75,1.24-1.88c2.02-3.09,5.47-8.56,9.08-15.36c2.7-5.09,4.35-8.1,5.61-9.73c0.54-0.67,1.75-1.84,3.09-1.27
				c0.14,0.05,0.6,0.32,0.86,0.97c0.06,0.14,0.09,0.29,0.14,0.49l0,0c0,0,0,0.05,0.01,0.08c0,0,0,0.05,0,0.08
				c0.46,2.99-2.73,7.11-11.2,23.73c-5.45,10.63-6.05,16.35-5.51,19.35c0.77,2.5,2.45,4.41,5.02,5.64
				c7.75,3.72,13.14-3.23,17.08-8.33c3.17-4.12,7.64-10.29,13.28-18.14c7.41-10.29,17.36-24.1,29.72-40.56
				c0.97-1.29,5.12-6.65,9.56-11.12c1.46-1.43,2.96-2.74,4.46-4.01c0.11-0.11,0.25-0.21,0.35-0.29l0,0l0.01-0.02
				c0.21-0.18,0.43-0.35,0.63-0.52c1.58-1.3,5.76-4.53,7.72-3.74c2.27,0.95,1.19,5.24-0.18,8.26c-2.24,4.53-4.86,9.21-7.28,13.5
				c-1.62,2.86-3.14,5.58-4.49,8.13c-0.87,1.65-1.85,3.42-2.86,5.27c-8.92,16.24-21.11,38.45-8.44,52.91
				c3.37,3.86,8.01,5.96,13.44,6.08c13.4,0.32,32.91-12.33,57.95-37.58c-0.46,5.84,0.14,11.46,2.31,16.53
				c5.48,12.71,14.31,17.07,20.76,18.44c2.14,0.46,4.29,0.67,6.46,0.66c4.35-0.02,8.75-0.9,13.1-2.4l-0.01,0.01
				c0,0,15.14-4.35,20.7-14.03c2.86-4.93,3.08-11.35,5.91-12.88c0.06-0.03,1.98-0.97,3.12,0.67c0.37,0.67,0.66,1.73,0.52,3.35
				c-0.15,1.12-0.41,2.28-0.63,3.17c-0.09,0.31-0.17,0.6-0.23,0.86c-0.12,0.43-0.2,0.71-0.2,0.71c-0.63,1.98-1.26,4-1.87,6.02
				l-1.87,6.04c-0.41,1.41-0.84,2.77-1.24,4.11c-14.28,1.12-26.56,4.66-36.29,8.64c-25.25,10.29-46.42,29-53.92,47.64
				c-7.45,18.47-0.23,29.15,4.73,33.9c6.5,6.16,15.55,8.7,24.39,8.69c4.2-0.02,8.3-0.61,12.07-1.67c0.11-0.02,0.21-0.05,0.31-0.08
				c0.46-0.12,0.92-0.28,1.39-0.41c0.31-0.11,0.61-0.21,0.9-0.32c0.23-0.08,0.44-0.15,0.64-0.25c0.4-0.14,0.8-0.29,1.18-0.44
				c14.78-5.93,39.16-23.25,47.52-43.61c4.47-10.85,8.96-23.38,12.41-33.4c11.89,0.71,25,3.54,39.08,9.7
				c4.76,2.1,10.31-0.08,12.41-4.84C1034.96,277.83,1032.8,272.29,1028.02,270.17 M921.44,333.21c-4.86,2.82-16.44,8.41-25.92,3.77
				c-0.75-0.41-1.41-0.89-1.96-1.42c-2.68-2.54-2.77-7-0.26-13.21c4.52-11.21,20.08-27.67,43.57-37.24
				c6.4-2.62,14.16-5.02,22.99-6.37C950.27,307.98,943.27,319.75,921.44,333.21"/>
			<path d="M1055.87,288.88c-4.6-2.45-10.28-0.71-12.73,3.89c-2.44,4.6-0.69,10.28,3.89,12.73c6.86,3.66,14.45,8.7,15.87,10.57
				c1.82,2.54,4.67,3.92,7.58,3.95c1.92,0.03,3.86-0.52,5.56-1.73c4.23-2.99,5.22-8.87,2.22-13.13
				C1073.78,298.81,1061.11,291.67,1055.87,288.88"/>
			<path d="M42.02,149.23c-14.32-2.27-26.16-12.55-26.36-12.7c-3.88-3.45-9.8-3.08-13.27,0.78c-3.46,3.89-3.11,9.85,0.77,13.3
				c0.64,0.58,15.98,14.08,35.91,17.22c0.52,0.09,1.01,0.12,1.52,0.12c4.54-0.01,8.53-3.31,9.25-7.94
				C50.66,154.88,47.15,150.04,42.02,149.23"/>
			<path d="M132.38,168.9c0.38-0.11,0.77-0.21,1.15-0.28c0.15-0.03,0.31-0.08,0.44-0.11c31.83-7.4,58.6-21.8,78.92-42.2
				c42.63-48.15,41.33-82.77,39.92-92.28c-4.89-28.63-32.89-50-69.98-18.23c-40.93,35.07-62.66,121.19-65.57,133.46
				c-0.29,1.18-0.55,2.34-0.81,3.51c-23.59,3.72-41.41,2.13-41.88,2.08c-5.16-0.51-9.77,3.28-10.28,8.44
				c-0.52,5.19,3.26,9.79,8.44,10.31c0.86,0.08,17.19,1.61,39.92-1.27C112.67,172.33,121.51,171.64,132.38,168.9 M138.53,142
				c2.57-9.57,5.24-18.64,7.95-27.24c4.89-14.88,18.25-51.21,39.13-74.65c8.15-8.52,17.45-15.21,28.02-18.77
				c8.79-1.91,26.61-0.57,18.92,35c0,0,0,0.03-0.01,0.06c-0.34,1.16-0.67,2.3-1.03,3.43c-2.48,7.55-9.71,26.43-25.74,46.51
				c-17,19.99-40.04,34.09-68.88,42.01C137.41,146.27,137.96,144.14,138.53,142"/>
			<path d="M557.84,189.92c0.06-0.12,0.46-0.96,1.12-2.36l0.37-0.92l-0.38-0.23c-3.86-1.81-13.11-6.95-16.07-9.45
				c-0.98,2.86-5.32,10.54-5.32,10.54c-18.02,30.41-47.15,65.17-61.32,58.89c-0.63-0.29-1.44-0.66-1.81-3.09
				c-0.71-4.66,0.96-12.12,4.63-21.31c14.25-17.76,23.88-31.37,33.99-52.16c1.49-3.03,4.56-9.38-0.12-14.58
				c-2.65-2.93-6.79-3.94-10.59-2.56c-2.42,0.87-5.02,2.44-12.41,12.42c-4.58,6.22-9.59,13.83-14.09,21.45
				c-4.44,7.51-9.33,16.58-13.19,25.81c0,0-4.9,7.74-13.57,16.48c-2.33,2.57-4.89,4.9-7.58,6.95l-0.02,0.03v-0.01
				c-11.03,8.38-24.11,11.98-30.12,8.82c-4.81-2.54-5.39-11.93-1.56-25.11c1.21-4.15,2.62-7.98,4.18-11.58h-0.02
				c0.03-0.06,0.05-0.11,0.09-0.17c0.12-0.29,0.23-0.58,0.35-0.84l-0.01,0.02c0,0,0.05-0.11,0.14-0.31
				c0.06-0.12,0.17-0.28,0.28-0.44c4.44-8.87,8.82-15.21,12.16-19.39c1.07-1.32,3.26-3.91,5.87-6.39
				c4.56-4.37,9.16-7.72,13.33-10.26h-0.03c0,0,0.08-0.05,0.18-0.11c2.19-1.33,4.24-2.44,6.13-3.37c2.4-1.21,5.04-2.42,7.03-2.97
				c0,0,1.78-0.57,2.27,0.38c0.37,1.7-2.02,4.31-8.33,8.01c0,0-0.02,0.02-0.03,0.03c-1.01,0.69-2.11,1.39-3.26,2.1l0,0
				c0,0-0.92,0.54-2.42,1.61c-1.61,1.15-2.96,2.19-3.97,3.03c-5.32,4.37-12.9,11.81-18.73,22.47c15.35-6.4,40.24-18.08,47.7-29.35
				c4.32-6.53,5.32-12.44,2.94-17.52c-0.51-1.07-1.13-2.02-1.84-2.87l-0.01-0.03c-1.33-1.76-2.7-3.11-3.98-4.17l-0.06-0.03
				c-0.06-0.06-0.11-0.09-0.18-0.15c-0.87-0.69-1.72-1.23-2.54-1.65c-3.51-1.67-7.31-1.39-10.08-0.8
				c-6.43,1.82-35.82,11.73-54.69,44.53c-19.67,2.16-33.17-3.36-42.31-10.94c-0.55-0.41-1.12-0.9-1.73-1.5
				c-8.24-7.98-13.5-19.27-13.5-19.27c-8.04-18.78-6.8-42.05,2.56-53.45h-0.03c0,0,4.23-5.7,6.97-5.41c0.05,0,0.12,0,0.18,0.02l0,0
				l0,0c1.18,0.14,1.84,1.19,1.79,2.79l0.02-0.01c0,0.06-0.02,0.14-0.02,0.2c0,0.18-0.03,0.4-0.06,0.6
				c-0.6,4.47-2.7,9.48-5.65,19.61c-0.03,0.14-0.06,0.26-0.12,0.37c-1.87,6.53-2.22,11.37-2.22,14.12c0.03,1.13,0.11,2.24,0.21,3.25
				v0.02c0.06,0.74,0.15,1.44,0.28,2.11v0.02c0.03,0.31,0.08,0.63,0.15,0.93c0,0,0,0.06,0.02,0.09c0.05,0.31,0.09,0.58,0.15,0.84
				c0,0,0,0.03,0,0.06c0.24,1.18,0.51,2.24,0.75,3.09c0,0,0,0.02,0,0.03c0.08,0.21,0.12,0.38,0.17,0.58l0.03,0.03
				c0.17,0.58,0.32,1.06,0.44,1.39v0.01c0.03,0.11,0.08,0.2,0.11,0.28c0,0,0.01,0.05,0.01,0.06c0.02,0.06,0.03,0.11,0.06,0.17
				c0,0,0,0.03,0.03,0.05c0.01,0.05,0.03,0.08,0.03,0.08s0,0.03,0.01,0.05l0.02,0.03v-0.02c2.99,8.81,7.78,15.32,9.68,17.72
				c3.26-7.86,10.49-28.4,12.47-59.24c0.31-13.93-2.57-22.34-8.95-26.61c-2.33-1.58-5.47-2.8-9.45-2.53c0,0-10.66,0.02-21.26,12.79
				c-0.28,0.34-0.52,0.66-0.78,0.96c-0.05,0.05-0.06,0.11-0.11,0.14c-0.58,0.73-1.13,1.5-1.67,2.27c-0.15,0.2-0.29,0.41-0.43,0.6
				l0,0c-12.13,18.15-13.21,47.4-1.44,72.11c0.64,1.38,1.35,2.73,2.08,4.04c0,0-1.3,4.32-3.97,11.11c-0.2,0.51-0.38,1-0.6,1.52
				c-0.02,0.05-0.03,0.08-0.05,0.11c-0.2,0.51-0.4,0.98-0.61,1.49c-0.01,0.05-0.03,0.08-0.05,0.12c-0.21,0.51-0.43,1.04-0.66,1.58
				c-0.02,0.02-0.03,0.05-0.03,0.06c-0.21,0.54-0.46,1.09-0.71,1.64c-0.95,2.24-2.05,4.61-3.25,7.09c-0.57,1.23-1.18,2.48-1.84,3.75
				c-0.02,0.02-0.02,0.06-0.05,0.08c-0.61,1.26-1.27,2.53-1.96,3.81c-0.03,0.05-0.06,0.11-0.09,0.17c-0.69,1.27-1.39,2.57-2.13,3.88
				c-0.03,0.06-0.06,0.11-0.08,0.17c-0.77,1.33-1.56,2.68-2.38,4.08c-0.26,0.4-0.47,0.8-0.67,1.1c-0.23,0.4-0.48,0.78-0.72,1.18
				v0.01c-1.36,2.19-2.7,4.27-4,6.23c-12.18,17.49-21.72,25.77-26.3,29.14c-5.48,3.8-10.78,6.33-15.63,7.05
				c-1.9,0.31-3.69,0.49-5.42,0.57c-0.12,0-0.21,0.01-0.34,0.01h-0.09h-0.06c-5.02,0.29-9.31-0.41-12.87-2.1h-0.03
				c-0.38-0.2-0.77-0.38-1.12-0.6c-0.03-0.02-0.06-0.03-0.09-0.05c-0.34-0.2-0.67-0.4-1.01-0.63c-0.05-0.02-0.09-0.05-0.12-0.06
				c-0.32-0.21-0.63-0.43-0.93-0.67c-0.03-0.05-0.09-0.08-0.14-0.12c-0.29-0.21-0.58-0.46-0.84-0.71c-0.06-0.03-0.12-0.09-0.17-0.12
				c-0.26-0.26-0.52-0.49-0.77-0.77l-0.17-0.15c-0.25-0.28-0.51-0.55-0.74-0.84c-0.05-0.05-0.09-0.09-0.12-0.14
				c-0.28-0.32-0.54-0.67-0.8-1.03v-0.02c-3.75-5.21-5.45-12.91-4.99-23.02c0.41-8.92,1.7-16.25,3.05-21.78c0,0,0-0.01,0.02-0.03
				c0.11-0.44,0.23-0.89,0.34-1.32c0.02-0.03,0.03-0.08,0.03-0.08c0.12-0.46,0.23-0.87,0.35-1.29l0,0c0.66-2.44,1.33-4.4,1.87-5.88
				c6.97-20.5,17.19-34.61,23.19-41.7c0.26-0.29,0.58-0.61,0.95-0.92c0.26-0.21,0.8-0.49,1.47-0.37c0.93,0.18,0.87,1.03,0.9,1.29
				c-0.03,0.54-0.15,1.15-0.28,1.59c-5.39,18.21-13.88,33.52-21.71,44.98l0,0c0,0-5.96,15.95-3.03,33.64
				c8.55-8.78,31.05-34.51,42.47-72.02c0.8-3.16,8.49-34.42-6.89-36.81c-10.78-1.69-22.47,8.75-29.12,15.9
				c-12.19,13.39-26.78,35.88-31.1,69.57c-1.21,8.03-1.64,15.38-1.27,22.01c-16.39,11.93-47.92,24.57-67.73,14.88
				c-16.81-8.21-22.46-33.12-16.68-71.34c-7.66,2.27-15.03,2.97-19.47,3.19c-2.11,16.73-2.13,31.24-0.01,43.35
				c4.46,25.37,17.62,36.69,27.9,41.71c15.21,7.45,35.82,7,58.01-1.23c7.83-2.9,15.5-6.68,22.24-10.83c1.96,4.6,4.6,8.59,7.89,11.96
				c5.35,5.53,14.74,11.44,30.15,11.4c3.13-0.01,6.5-0.26,10.13-0.81c22.92-3.51,46.28-27.99,63.82-54.55
				c0.47-0.66,0.92-1.36,1.41-2.14c2.19-3.37,4.27-6.79,6.27-10.19c4.64-7.72,7.52-12.93,9.08-15.9c2.68,2.24,5.67,4.41,8.95,6.33
				c0.6,0.35,1.19,0.67,1.79,1c10.26,5.44,21.75,8.18,34.38,8.24c-0.64,1.82-1.26,3.72-1.81,5.67c-9.07,31.13,2.89,42.82,10.85,47
				c13.82,7.28,33.32,1.7,48.67-9.31c-0.69-2.44-1.23-5.26-1.15-7.97c0.21-6.82,5.71-5.27,5.58-1.82c-0.15,3.45,0.54,5.93,0.54,5.93
				c2.11,9.42,8.32,13.65,12.39,15.49c17.3,7.69,37.9-3.11,61.31-32.11c15.69-19.42,27.24-40.26,27.73-41.13L557.84,189.92z"/>
		</g>
	</g>
	<g>
		<path d="M190.92,401.34h-72.54c-1.4,0-2.53,1.13-2.53,2.53v177.54c0,1.42,1.13,2.55,2.53,2.55h39.06c1.4,0,2.53-1.13,2.53-2.55
			v-50.72h27.14c45.15,0,74.32-25.49,74.32-64.94v-0.52C261.43,426.42,233.75,401.34,190.92,401.34 M216.78,466.53
			c0,14.78-11.15,24.35-28.4,24.35h-28.41v-49.21h27.64c18.81,0,29.17,8.63,29.17,24.35V466.53z"/>
		<path d="M674.98,439.88v-36c0-1.4-1.13-2.53-2.53-2.53H525.32c-1.4,0-2.53,1.13-2.53,2.53v36c0,1.42,1.13,2.55,2.53,2.55h51.51
			v138.98c0,1.42,1.12,2.53,2.53,2.53h39.04c1.42,0,2.53-1.12,2.53-2.53V442.43h51.51C673.85,442.43,674.98,441.29,674.98,439.88"/>
		<path d="M778.77,401.62c-0.39-0.94-1.31-1.54-2.33-1.54h-36.02c-1.02,0-1.94,0.6-2.35,1.54l-76.08,178.8
			c-0.35,0.79-0.27,1.7,0.2,2.39c0.49,0.72,1.28,1.13,2.13,1.13h39.83c1.02,0,1.95-0.6,2.35-1.56l15.58-38.25h71.69l15.57,38.25
			c0.41,0.96,1.32,1.56,2.36,1.56h40.83c0.85,0,1.64-0.41,2.11-1.13c0.47-0.69,0.55-1.61,0.22-2.39L778.77,401.62z M738.11,504.56
			l19.82-48.33l19.82,48.33H738.11z"/>
		<path d="M308.73,391.53h45.57c2.31,0,4.19-1.89,4.19-4.19v-14.2c0-2.31-1.87-4.19-4.19-4.19h-45.57c-2.31,0-4.19,1.87-4.19,4.19
			v14.2C304.54,389.65,306.42,391.53,308.73,391.53"/>
		<path d="M1022.03,578.28l-15.02-14.44l-37.45-38.16c28.34-2.31,50.7-29.22,50.7-62.1c0-34.36-24.48-62.26-54.66-62.26
			c-0.6,0-1.2,0.05-1.78,0.06c-0.9-0.02-1.83-0.06-2.74-0.06h-81.16c-1.4,0-2.53,1.15-2.53,2.55v177.54c0,1.42,1.13,2.55,2.53,2.55
			h39.06c1.4,0,2.53-1.13,2.53-2.55v-54.26h0.14l52.99,55.68c0.46,0.71,1.24,1.13,2.09,1.13h41.59h1.34h0.35h1.01h0.69
			c1.67-0.02,2.17-0.76,2.47-1.95C1024.23,581.43,1024.01,580.2,1022.03,578.28 M897.12,476.93c-7.56,1.4-14.83-3.59-16.21-11.15
			c-0.08-0.38-0.14-0.76-0.19-1.15v-2.72c0.06-0.47,0.16-0.94,0.25-1.42c0.5-2.47,1.57-4.66,3.29-6.52
			c3.15-3.42,7.04-4.93,11.63-4.53c6.22,0.55,11.3,5.29,12.37,11.43C909.55,468.42,904.61,475.55,897.12,476.93 M926.99,482.7
			l-9.78-9.57c1.54-3.01,2.3-6.31,2.3-9.92c-0.02-3.83-0.93-7.3-2.69-10.44l9.74-9.51C934.58,454.88,934.77,470.92,926.99,482.7
			 M935.84,491.31c7.08-8,10.77-17.35,10.74-28.07c-0.03-10.86-3.9-20.35-11.37-28.45l10.12-9.89c19.98,20.15,21.3,54.36,0.65,76.35
			L935.84,491.31z M967.15,521.91l-10.83-10.58c11.65-14.42,15.93-28.13,17.43-36.91c0.35-2.3,0.6-4.64,0.71-6.97
			c0.14-2.83,0.16-5.7-0.06-8.55c-1.2-16.69-7.29-31.2-18.45-43.45c-0.13-0.14-0.24-0.27-0.39-0.44c0.14-0.14,0.25-0.3,0.39-0.43
			c0.16-0.19,0.33-0.36,0.5-0.54l9.68-9.46c0.02,0.02,0.03,0.03,0.05,0.06c8.47,9.08,14.66,19.6,18.61,31.53
			c1.89,5.7,3.15,11.55,3.84,17.55c0.27,2.35,0.46,4.71,0.54,7.08c0,0.19,0.03,0.35,0.08,0.54v4.94c-0.05,0.19-0.06,0.39-0.08,0.58
			c-0.11,1.54-0.17,3.1-0.32,4.63c-0.3,3.86-0.88,7.65-1.73,11.4c-3.12,14.07-9.27,26.51-18.51,37.37
			C968.11,520.84,967.64,521.37,967.15,521.91"/>
		<path d="M495.4,401.33h-38.54c-1.42,0-2.55,1.15-2.55,2.53v101.82l-78.65-103.35c-0.47-0.63-1.21-1.01-2.01-1.01h-36.02
			c-1.4,0-2.52,1.15-2.52,2.53v18.64v60.46h20.76l-20.76,63.36v35.09c0,1.42,1.12,2.53,2.52,2.53h38.57c1.39,0,2.53-1.12,2.53-2.53
			V476.07l81.42,106.89c0.49,0.64,1.23,0.99,2.02,0.99h33.23c1.4,0,2.53-1.12,2.53-2.53V403.86
			C497.93,402.48,496.8,401.33,495.4,401.33"/>
		<path d="M325.89,401.33h-39.06c-1.4,0-2.53,1.15-2.53,2.53v177.55c0,1.42,1.13,2.53,2.53,2.53h39.06c1.42,0,2.55-1.12,2.55-2.53
			v-14.75v-60.29h-26.18l26.18-66.87v-35.64C328.44,402.48,327.31,401.33,325.89,401.33"/>
	</g>
</g>
</svg>
